<?xml version="1.0" encoding="UTF-8"?>
<svg version="1.1" xmlns="http://www.w3.org/2000/svg" width="512" height="512">
<path d="M0 0 C3.25650276 0.54626492 6.41693078 1.35053555 9.60546875 2.203125 C10.51084885 2.43680283 11.41622894 2.67048065 12.3490448 2.91123962 C15.2987608 3.67790507 18.24327757 4.46251972 21.1875 5.25 C22.2008844 5.51777252 23.2142688 5.78554504 24.25836182 6.06143188 C133.45527635 34.95061029 133.45527635 34.95061029 157.31005859 75.3659668 C161.14685496 82.09858196 164.62759742 89.02525829 168 96 C168.72703125 94.49373047 168.72703125 94.49373047 169.46875 92.95703125 C175.99883246 79.56929224 183.07356814 67.23114937 193 56 C193.61230469 55.29230469 194.22460938 54.58460937 194.85546875 53.85546875 C219.02691514 27.72556828 265.11500647 19.14776337 298 10 C299.12547241 9.68681824 299.12547241 9.68681824 300.27368164 9.36730957 C305.36435099 7.95420028 310.46037079 6.56233052 315.56231689 5.19049072 C317.25166137 4.73531283 318.94012494 4.27685102 320.62762451 3.81488037 C323.00143647 3.167143 325.37885141 2.53477604 327.7578125 1.90625 C328.8062735 1.61628647 328.8062735 1.61628647 329.87591553 1.32046509 C334.81486022 0.04023572 339.91236077 -0.80969047 345 0 C347.62759999 1.68913193 349.52318694 3.71035779 351.5625 6.0625 C352.67835808 7.25515146 353.79554031 8.44656545 354.9140625 9.63671875 C355.44290039 10.21470215 355.97173828 10.79268555 356.51660156 11.38818359 C358.42338578 13.46003833 360.38650608 15.4458084 362.4375 17.375 C362.99308594 17.91898438 363.54867188 18.46296875 364.12109375 19.0234375 C367.07926186 20.56094691 368.80916535 19.87124307 372 19 C375.0976662 17.78307254 378.10960555 16.40685614 381.125 15 C382.70957229 14.26787129 384.29546757 13.53859768 385.8828125 12.8125 C386.57777832 12.48894531 387.27274414 12.16539063 387.98876953 11.83203125 C394.82290462 9.00479984 402.15831786 9.07226841 409.125 11.4375 C415.3411262 14.18279233 420.19438737 19.15425574 423.08370465 25.30816448 C424.0610274 28.1792825 424.2516445 30.36114422 424.25447559 33.38577461 C424.26030779 34.4597988 424.26613998 35.533823 424.27214891 36.64039338 C424.26836958 37.81441299 424.26459026 38.9884326 424.26069641 40.19802856 C424.26452196 41.44975101 424.26834751 42.70147346 424.27228898 43.99112689 C424.28258135 47.46295141 424.28038406 50.9346728 424.27610838 54.40650582 C424.27364349 58.15157962 424.28265222 61.89662844 424.29014587 65.64169312 C424.30290021 72.97670232 424.30468576 80.31167494 424.30234561 87.64669336 C424.30056359 93.60622131 424.30230959 99.56573813 424.30657005 105.52526474 C424.30716524 106.37298166 424.30776043 107.22069858 424.30837366 108.0941039 C424.30958538 109.81612103 424.31079951 111.53813817 424.31201603 113.26015531 C424.3228938 129.41073334 424.32072759 145.56129049 424.31463119 161.7118697 C424.30945833 176.49849741 424.32072676 191.28505932 424.33972941 206.071674 C424.35908225 221.24678955 424.36736853 236.42187393 424.36360615 251.59700191 C424.36169067 260.11991789 424.36421564 268.64277781 424.37832069 277.16568375 C424.39020276 284.41882496 424.39167502 291.67187558 424.37953053 298.92501797 C424.37362021 302.62767049 424.37260145 306.33015706 424.38453293 310.03279877 C424.39729829 314.04064518 424.38697911 318.04809246 424.3742218 322.05593872 C424.38159609 323.23441978 424.38897037 324.41290083 424.39656812 325.62709343 C424.38936158 326.69590213 424.38215503 327.76471083 424.37473011 328.86590767 C424.37478513 329.79161351 424.37484014 330.71731936 424.37489682 331.67107689 C423.92547685 334.46295053 423.20961042 335.29439522 421 337 C418.58789062 338.23242188 418.58789062 338.23242188 415.65625 339.46875 C414.53371826 339.94779785 413.41118652 340.4268457 412.25463867 340.92041016 C411.64639252 341.17622864 411.03814636 341.43204712 410.41146851 341.69561768 C407.04503412 343.11227733 403.68937212 344.55414254 400.33203125 345.9921875 C399.60043289 346.30481537 398.86883453 346.61744324 398.11506653 346.93954468 C388.43544929 351.083451 378.81413958 355.35987097 369.1875 359.625 C365.72277792 361.15912908 362.25787688 362.69285368 358.79296875 364.2265625 C357.99989917 364.57770678 357.20682959 364.92885105 356.38972759 365.29063606 C349.20601182 368.46984386 342.01643697 371.63564226 334.82543945 374.79833984 C333.10990749 375.55300789 333.10990749 375.55300789 331.35971832 376.32292175 C328.57318737 377.54870961 325.78661389 378.77440071 323 380 C322.99668985 380.66814161 322.99337971 381.33628323 322.98996925 382.02467155 C322.90882818 398.26521332 322.81676524 414.50565244 322.71247292 430.74606133 C322.66230312 438.59973061 322.61586082 446.45338922 322.578125 454.30712891 C322.54523369 461.15065617 322.50541853 467.99410169 322.45720994 474.83753884 C322.43191631 478.46271242 322.41014365 482.08783158 322.39665604 485.71306992 C322.38148756 489.75528506 322.35086452 493.79723868 322.31884766 497.83935547 C322.31560738 499.65196365 322.31560738 499.65196365 322.31230164 501.50119019 C322.29555641 503.14607422 322.29555641 503.14607422 322.2784729 504.82418823 C322.27294214 505.78100935 322.26741138 506.73783047 322.26171303 507.72364616 C322 510 322 510 320 512 C312.78750128 513.16585596 307.01288274 509.6403241 300.625 506.625 C298.69436975 505.73349122 296.76132653 504.84735868 294.828125 503.96144104 C293.43880049 503.32454694 292.05014532 502.68619103 290.66210938 502.04649353 C282.76352285 498.41182893 274.80051573 494.92617867 266.8343811 491.44268799 C264.22646233 490.30220663 261.61933962 489.15992417 259.01245117 488.01708984 C255.46116329 486.46025878 251.90963223 484.90398479 248.35791016 483.34814453 C242.15487476 480.63030009 235.95403014 477.90747512 229.75395203 475.18289185 C225.44467518 473.28936204 221.13451415 471.39791447 216.82202148 469.51171875 C209.47845468 466.29798563 202.14044945 463.07554322 194.83781433 459.7696228 C191.86319049 458.42397692 188.88387308 457.08892053 185.90408325 455.75476074 C184.52677924 455.13428365 183.15191611 454.50835511 181.77975464 453.87658691 C179.90721197 453.01464456 178.02721499 452.17153773 176.14453125 451.33203125 C175.09628174 450.85483643 174.04803223 450.3776416 172.96801758 449.88598633 C167.39948529 448.22371737 163.05164316 450.21340628 157.92578125 452.4921875 C156.72381104 453.02231445 155.52184082 453.55244141 154.28344727 454.09863281 C152.95976316 454.69067692 151.63611533 455.28280215 150.3125 455.875 C148.90385439 456.4990273 147.49491013 457.12238079 146.08569336 457.74511719 C143.02228212 459.10016937 139.96070513 460.45925779 136.90039062 461.82128906 C131.85934995 464.06414428 126.81300776 466.29489787 121.765625 468.5234375 C119.99747529 469.30419486 118.22932752 470.08495663 116.46118164 470.86572266 C115.57383331 471.25753723 114.68648499 471.64935181 113.77224731 472.05303955 C111.04500519 473.25772788 108.31820822 474.46341815 105.59155273 475.66943359 C96.40523056 479.73226127 87.2160974 483.78853158 78.01953125 487.828125 C77.12852219 488.21950653 76.23751312 488.61088806 75.31950378 489.01412964 C70.95612572 490.92997995 66.59162655 492.84322449 62.2253418 494.75244141 C54.83923876 497.98383063 47.4620038 501.2287355 40.125 504.5703125 C38.96564941 505.09431641 37.80629883 505.61832031 36.61181641 506.15820312 C34.54137692 507.09644422 32.47543948 508.04472565 30.41552734 509.00585938 C25.3720679 511.28219962 21.5547707 512.74355198 16 512 C14 510 14 510 13.75390434 507.97352409 C13.75666972 506.71527667 13.75666972 506.71527667 13.75949097 505.43161011 C13.75674164 504.46964722 13.75399231 503.50768433 13.75115967 502.51657104 C13.7619455 500.92838058 13.7619455 500.92838058 13.77294922 499.30810547 C13.77265717 498.19590637 13.77236511 497.08370728 13.77206421 495.93780518 C13.77346182 492.24752096 13.78904338 488.55743661 13.8046875 484.8671875 C13.8084161 482.3141389 13.81126379 479.76108887 13.81326294 477.20803833 C13.82012897 471.16610061 13.83590505 465.12424918 13.85596192 459.08234608 C13.87829908 452.2045689 13.88930884 445.32678832 13.89935279 438.44898391 C13.92027072 424.2992826 13.95546031 410.14964525 14 396 C15.65 396 17.3 396 19 396 C18.67 391.38 18.34 386.76 18 382 C-11.01228434 369.15540628 -11.01228434 369.15540628 -40.06677246 356.40670776 C-45.08953054 354.21335428 -50.11023365 352.0152984 -55.13110352 349.81762695 C-57.05779642 348.97471454 -58.98494545 348.13285053 -60.91210938 347.29101562 C-64.69427907 345.63800454 -68.47228248 343.97566045 -72.25 342.3125 C-73.38179687 341.81886963 -74.51359375 341.32523926 -75.6796875 340.81665039 C-77.23816406 340.12817017 -77.23816406 340.12817017 -78.828125 339.42578125 C-79.7346582 339.02786377 -80.64119141 338.62994629 -81.57519531 338.2199707 C-84.05474054 336.97245887 -85.96246493 335.89034739 -88 334 C-88.50139666 331.6745289 -88.50139666 331.6745289 -88.50336456 328.87428761 C-88.51379555 327.807329 -88.52422654 326.7403704 -88.53497362 325.64107972 C-88.52605073 324.46464503 -88.51712785 323.28821033 -88.50793457 322.0761261 C-88.51417453 320.82964033 -88.5204145 319.58315456 -88.52684355 318.29889649 C-88.54359192 314.83209231 -88.53526584 311.36572673 -88.52289867 307.89892066 C-88.51387233 304.16255843 -88.52780616 300.42627322 -88.53881836 296.68992615 C-88.55663675 289.36629027 -88.55274814 282.04281806 -88.5411678 274.71917567 C-88.53214331 268.76583088 -88.53090521 262.81253203 -88.53526306 256.85918236 C-88.53587599 256.01263807 -88.53648893 255.16609379 -88.53712043 254.29389664 C-88.53839932 252.57422508 -88.53969617 250.85455353 -88.5410108 249.134882 C-88.5524272 232.9946243 -88.5392881 216.85445734 -88.51780933 200.71421453 C-88.49995354 186.86810593 -88.50302785 173.02213154 -88.52148438 159.17602539 C-88.54290026 143.10225485 -88.55131143 127.02856405 -88.53903532 110.95478123 C-88.53776112 109.23981966 -88.53650364 107.52485807 -88.53526306 105.80989647 C-88.53464596 104.96608939 -88.53402886 104.12228231 -88.53339306 103.25290531 C-88.5299411 97.30994975 -88.53576551 91.36704479 -88.54518127 85.42409706 C-88.55641134 78.17650547 -88.55334079 70.92908711 -88.5320583 63.68151531 C-88.52155884 59.98429496 -88.51740671 56.28736321 -88.53065491 52.59014511 C-88.54480864 48.57944382 -88.52788734 44.56946863 -88.50793457 40.55879211 C-88.51685746 39.39351103 -88.52578034 38.22822994 -88.53497362 37.0276373 C-88.45949488 29.21276633 -87.26841962 23.95429783 -82.17578125 17.79296875 C-75.52438884 12.06189478 -69.27897056 9.6100283 -60.49047852 9.72143555 C-55.91327338 10.23340409 -51.88389419 12.0581342 -47.6875 13.875 C-46.80771484 14.23980469 -45.92792969 14.60460938 -45.02148438 14.98046875 C-38.47213954 17.71557859 -38.47213954 17.71557859 -36.03442383 19.18408203 C-33.26899374 20.29317448 -31.8046606 19.93177088 -29 19 C-26.96691841 17.60034228 -26.96691841 17.60034228 -25.15234375 15.76171875 C-24.46462891 15.10623047 -23.77691406 14.45074219 -23.06835938 13.77539062 C-22.36517578 13.08638672 -21.66199219 12.39738281 -20.9375 11.6875 C-20.23044922 11.01009766 -19.52339844 10.33269531 -18.79492188 9.63476562 C-18.10849609 8.97541016 -17.42207031 8.31605469 -16.71484375 7.63671875 C-16.05468262 7.00427246 -15.39452148 6.37182617 -14.71435547 5.72021484 C-12.87883375 3.94795141 -12.87883375 3.94795141 -11.06640625 1.51953125 C-7.70307537 -0.95369316 -4.04929227 -0.30133756 0 0 Z " fill="#4E2519" transform="translate(88,0)"/>
<path d="M0 0 C2.61328125 2.2578125 2.61328125 2.2578125 5.3125 5.125 C8.37988968 8.35807351 11.43587525 11.42326754 14.81640625 14.328125 C19.31328532 18.20905887 23.46436312 22.38953153 27.625 26.625 C29.07303496 28.09880071 30.52350625 29.57021216 31.9765625 31.0390625 C32.60643066 31.68053223 33.23629883 32.32200195 33.88525391 32.98291016 C36.04660562 35.15571791 36.04660562 35.15571791 39.08707619 37.09258556 C41.89759568 39.44518288 41.99497563 39.97359987 42.73828697 43.8792696 C42.76340961 45.43122674 42.75548552 46.98393188 42.7215271 48.53572083 C42.72665365 49.39345539 42.7317802 50.25118996 42.7370621 51.13491648 C42.7469437 54.00843455 42.71395029 56.87984956 42.68115234 59.75317383 C42.67945989 61.81299795 42.68040992 63.87282569 42.68380737 65.93264771 C42.68553052 71.52546501 42.65022808 77.11751192 42.60836363 82.71015 C42.57088325 88.55442298 42.56733338 94.39871316 42.56021118 100.24308777 C42.54155449 111.31058157 42.49230599 122.37772023 42.43211424 133.44505757 C42.365075 146.04464178 42.33206655 158.64424285 42.30194163 171.24396098 C42.23920793 197.16283763 42.13365659 223.08139893 42 249 C39.64129297 247.70030429 37.31827678 246.36874305 35 245 C34.34203161 244.63385851 33.68406321 244.26771702 33.00615638 243.89048034 C29.39180287 241.67037051 28.18219157 240.74457353 27.1386652 236.47992992 C27.10941771 235.09939705 27.11853212 233.71772035 27.15821838 232.33744812 C27.15223741 231.57363526 27.14625644 230.80982239 27.14009422 230.02286369 C27.12857524 227.46678598 27.16703302 224.91393474 27.20532227 222.3581543 C27.20729705 220.52492855 27.20618792 218.69169726 27.20222473 216.85847473 C27.20021531 211.88323805 27.24138466 206.9091814 27.29024243 201.93421912 C27.33398585 196.73459329 27.33811231 191.53494074 27.34642029 186.3351593 C27.3681818 176.48942583 27.4256315 166.64423609 27.49586672 156.79874212 C27.57409408 145.58972648 27.61259267 134.38068495 27.64773476 123.17146432 C27.72091344 100.11400804 27.84404718 77.05703447 28 54 C24.7 54 21.4 54 18 54 C18 112.41 18 170.82 18 231 C16.68 230.34 15.36 229.68 14 229 C13.16238947 228.6620362 12.32477894 228.3240724 11.46178627 227.97586727 C8.2095332 226.31071765 6.29050626 224.87314474 4 222 C2.05095065 215.64727327 2.73947755 208.57935034 2.86474609 202.01977539 C2.86756803 199.95965717 2.86598115 197.89952889 2.86032104 195.8394165 C2.85745344 190.25441498 2.91621377 184.67156405 2.98606062 179.08706212 C3.04860366 173.24821095 3.0544502 167.40930962 3.0663147 161.57017517 C3.09738751 150.51660969 3.17943683 139.46403407 3.27980959 128.41090435 C3.39161089 115.82587367 3.44657279 103.24079553 3.49676394 90.65539181 C3.60127051 64.76971257 3.7771455 38.88491176 4 13 C0.7 13 -2.6 13 -6 13 C-6 81.31 -6 149.62 -6 220 C-16.98715381 223.29614614 -27.50136863 226.40602956 -38.55541992 229.12841797 C-67.76688463 236.32530693 -98.11595122 245.29172566 -125 259 C-126.0003125 259.50660156 -127.000625 260.01320313 -128.03125 260.53515625 C-146.29874686 270.65557504 -160.46017726 291.38053179 -167 311 C-167.66 311 -168.32 311 -169 311 C-169.18740058 283.96495513 -169.32820879 256.9300085 -169.41449738 229.89444351 C-169.45563882 217.33956355 -169.51166744 204.78508863 -169.60351562 192.23046875 C-169.68359034 181.27987304 -169.73494533 170.32957086 -169.75270796 159.37869048 C-169.76308097 153.58733865 -169.78722585 147.79682609 -169.84584045 142.00574493 C-169.90071648 136.53900747 -169.9167783 131.07344352 -169.90486145 125.60645676 C-169.90703697 123.6152213 -169.92260604 121.62394075 -169.9536438 119.63294601 C-170.35397448 92.59396879 -156.86043019 67.56292023 -138.5 48.125 C-108.21128406 19.78143095 -52.41702644 9.76513051 -12.9375 0.5625 C-12.20474854 0.38605957 -11.47199707 0.20961914 -10.71704102 0.02783203 C-6.84230729 -0.83810704 -3.74370583 -1.47118874 0 0 Z " fill="#FECA5C" transform="translate(430,12)"/>
<path d="M0 0 C1.44347966 0.1540177 2.88676736 0.30983532 4.32997131 0.46641541 C5.5355977 0.59628294 5.5355977 0.59628294 6.76558018 0.72877407 C9.23435135 1.02844683 11.58955862 1.50332588 13.99609375 2.12890625 C14.87152832 2.35529785 15.74696289 2.58168945 16.64892578 2.81494141 C17.56915527 3.06163574 18.48938477 3.30833008 19.4375 3.5625 C20.91065674 3.95187744 20.91065674 3.95187744 22.41357422 4.34912109 C33.33443767 7.28321253 44.12529314 10.63777427 54.90991211 14.03320312 C58.09549596 15.02987785 61.28748499 16.00388128 64.48046875 16.9765625 C97.24501759 27.05156341 127.83931558 36.97034118 147 67 C147.71027344 68.11246094 148.42054688 69.22492188 149.15234375 70.37109375 C156.6441149 82.80944701 163.17386372 96.6969117 163.12025452 111.37750244 C163.12153615 112.65669733 163.12153615 112.65669733 163.12284368 113.96173453 C163.12449286 116.82379481 163.11898626 119.68579667 163.11352539 122.54785156 C163.11324337 124.59767658 163.11340154 126.6475017 163.1139679 128.69732666 C163.1142553 134.26716891 163.10836777 139.83698971 163.10139394 145.40682697 C163.09515091 151.22578638 163.09455585 157.04474626 163.09336853 162.8637085 C163.09025802 173.88502906 163.0820484 184.90633973 163.07201904 195.92765594 C163.06084922 208.47406247 163.05534526 221.02046948 163.05032361 233.56687975 C163.03986557 259.37792532 163.02227153 285.18896211 163 311 C162.34 311 161.68 311 161 311 C160.77449463 310.49251221 160.54898926 309.98502441 160.31665039 309.4621582 C151.50451028 289.80635665 140.69542327 270.40936819 121 260 C119.27330078 259.08541016 119.27330078 259.08541016 117.51171875 258.15234375 C89.91368436 244.15986595 58.51895162 236.0748984 28.73828125 228.01953125 C24.97843322 226.99411815 21.24000491 225.9078156 17.5 224.8125 C12.62927936 223.40628496 7.78658108 222.26617321 2.79296875 221.39453125 C1 221 1 221 0 220 C-0.09791944 217.16791027 -0.12992595 214.36020719 -0.12025452 211.5276947 C-0.12110894 210.62845876 -0.12196337 209.72922281 -0.12284368 208.8027373 C-0.12450125 205.7655258 -0.11897262 202.72836858 -0.11352539 199.69116211 C-0.11324355 197.5235545 -0.11340119 195.35594679 -0.1139679 193.18833923 C-0.114256 187.28361979 -0.10835717 181.37892048 -0.10139394 175.47420573 C-0.09516256 169.31089424 -0.09455677 163.14758234 -0.09336853 156.98426819 C-0.09025457 145.304111 -0.08204032 133.62396312 -0.07201904 121.94381005 C-0.06085989 108.65020774 -0.05534796 95.35660569 -0.05032361 82.06299961 C-0.03985776 54.70866123 -0.02225708 27.35433114 0 0 Z " fill="#FECA5C" transform="translate(88,12)"/>
<path d="M0 0 C14.60914761 5.61890293 14.60914761 5.61890293 20.7734375 8.390625 C21.44723953 8.69211456 22.12104156 8.99360413 22.81526184 9.30422974 C24.25485091 9.94856967 25.69381253 10.59431312 27.13217163 11.24139404 C31.08842662 13.02053256 35.05021337 14.7872779 39.01171875 16.5546875 C39.83454849 16.92199982 40.65737823 17.28931213 41.50514221 17.66775513 C50.37635266 21.62282812 59.27994541 25.50264432 68.1875 29.375 C71.46496461 30.80050352 74.7422969 32.22631093 78.01953125 33.65234375 C78.83833771 34.00861343 79.65714417 34.36488312 80.50076294 34.73194885 C89.80088136 38.78062525 99.08850888 42.85768484 108.375 46.9375 C109.22072571 47.30901184 110.06645142 47.68052368 110.93780518 48.06329346 C115.2264276 49.94729073 119.51488119 51.8316719 123.80322266 53.71630859 C136.80769155 59.43136354 149.81407974 65.14205124 162.82174683 70.849823 C166.66092303 72.53445648 170.49995196 74.21942168 174.33837891 75.90576172 C194.01239268 84.54852338 213.73815695 93.06518532 233.50024414 101.50463867 C235.88703056 102.52445498 238.24592008 103.61151905 240.57592773 104.75512695 C246.71827312 106.98826914 251.40313202 104.62717107 257.1171875 102.11328125 C257.79779236 101.82017059 258.47839722 101.52705994 259.17962646 101.22506714 C261.41427923 100.26067822 263.64462281 99.28673165 265.875 98.3125 C267.45469136 97.62814481 269.03461041 96.94431498 270.61474609 96.26098633 C274.64969459 94.51380598 278.68092035 92.7582258 282.71069336 90.99914551 C284.84371465 90.06820921 286.97736941 89.13874601 289.11132812 88.20996094 C297.66950183 84.4841438 306.21819659 80.73691981 314.76379395 76.98236084 C318.839578 75.19187707 322.91593604 73.40270059 326.9921875 71.61328125 C332.26138344 69.30007151 337.53049563 66.98667156 342.79931641 64.67260742 C353.83134611 59.82766275 364.86754599 54.99238071 375.90771484 50.16601562 C386.55929913 45.50917011 397.20503526 40.83908968 407.8487854 36.16436768 C414.76178662 33.1282969 421.675262 30.09330587 428.58880615 27.05847168 C430.15462479 26.37110485 431.72042193 25.68368906 433.28619385 24.99621582 C447.85579873 18.59944974 462.43190315 12.21848604 477.05111694 5.93572998 C478.89685444 5.14246865 480.74201302 4.34786074 482.5871582 3.55322266 C483.68116943 3.0844873 484.77518066 2.61575195 485.90234375 2.1328125 C486.86648193 1.71918457 487.83062012 1.30555664 488.82397461 0.87939453 C491 0 491 0 492 0 C492 9.57 492 19.14 492 29 C467.43922563 40.03070594 442.82808098 50.9393875 418.16455078 61.73828125 C409.64937866 65.46682053 401.13697045 69.20165847 392.625 72.9375 C391.78286957 73.30704803 390.94073914 73.67659607 390.0730896 74.05734253 C375.98363518 80.24093448 361.90755197 86.4544852 347.83584595 92.67834473 C327.90793628 101.49182395 307.95637451 110.25119878 288 119 C287.58253392 121.87364791 287.58253392 121.87364791 288 125 C289.97368248 126.80328508 289.97368248 126.80328508 293 128 C293.65142975 128.3052359 294.3028595 128.6104718 294.97402954 128.92495728 C297.37240827 130.03874144 299.78712169 131.10960938 302.20703125 132.17578125 C303.11241638 132.5776767 304.01780151 132.97957214 304.95062256 133.39364624 C307.90316103 134.70316436 310.85778093 136.00791044 313.8125 137.3125 C315.85613202 138.2176435 317.8996698 139.12299981 319.94311523 140.02856445 C333.08732821 145.84907962 346.25008583 151.62675781 359.42700195 157.37280273 C369.65511195 161.83495246 379.83571751 166.3943095 390 171 C390 180.57 390 190.14 390 200 C384.17315583 198.05771861 378.71773112 196.11979079 373.1796875 193.5859375 C372.45551636 193.25928604 371.73134521 192.93263458 370.98522949 192.59608459 C369.42706876 191.89298262 367.8697367 191.18804177 366.31317139 190.48141479 C362.07792773 188.55950878 357.83577409 186.65297665 353.59375 184.74609375 C352.71697601 184.35170609 351.84020203 183.95731842 350.93685913 183.55097961 C341.78140347 179.43975778 332.58147404 175.43283672 323.375 171.4375 C308.3211123 164.89999002 293.30435771 158.2831074 278.31530762 151.59828186 C276.95671031 150.99314963 275.59742565 150.38955803 274.23742676 149.7875824 C270.54153845 148.14883999 266.86605109 146.47482102 263.20556641 144.75830078 C262.40278763 144.38745865 261.60000885 144.01661652 260.77290344 143.63453674 C259.23224956 142.92238377 257.69621343 142.2001188 256.16593933 141.46592712 C250.49958585 138.86763323 246.03778544 138.01468122 239.91845703 139.99951172 C238.87544434 140.47146973 237.83243164 140.94342773 236.7578125 141.4296875 C236.17004532 141.69098953 235.58227814 141.95229156 234.97669983 142.22151184 C233.02061616 143.09423536 231.07315883 143.98474353 229.125 144.875 C227.71457089 145.5076555 226.30350096 146.13888401 224.8918457 146.76879883 C221.85243768 148.12627855 218.81584321 149.48980982 215.78076172 150.85693359 C208.45879561 154.1477534 201.09883411 157.35214958 193.74401855 160.56866455 C179.19966458 166.93385943 164.67672079 173.34761049 150.15734863 179.76953125 C142.43954555 183.1826605 134.72011365 186.59210073 127 190 C126.30642395 190.30629333 125.6128479 190.61258667 124.89825439 190.92816162 C120.9139384 192.68724505 116.92684778 194.43984757 112.9375 196.1875 C111.56440674 196.79368164 111.56440674 196.79368164 110.16357422 197.41210938 C109.35549316 197.76466797 108.54741211 198.11722656 107.71484375 198.48046875 C107.03542725 198.77848389 106.35601074 199.07649902 105.65600586 199.38354492 C104 200 104 200 102 200 C102 190.43 102 180.86 102 171 C122.82972661 161.53194245 143.73580016 152.27410562 164.72323608 143.16247559 C173.30186023 139.4372706 181.87020946 135.68867987 190.4375 131.9375 C191.82673448 131.32941096 193.21597578 130.7213375 194.60522461 130.11328125 C197.73694728 128.74248632 200.86852471 127.37135998 204 126 C204 123.69 204 121.38 204 119 C177.71517271 107.37106138 151.41499527 95.77792553 125.09277344 84.23388672 C119.98061008 81.99172056 114.86911322 79.7480381 109.7578125 77.50390625 C108.91146744 77.13231888 108.06512238 76.76073151 107.19313049 76.37788391 C103.77605085 74.87757419 100.3589999 73.37719914 96.94198608 71.8767395 C88.35716998 68.1070285 79.77212119 64.33785913 71.18476868 60.57392883 C53.2941402 52.73221075 35.41263457 44.8710439 17.5625 36.9375 C16.77894135 36.58935242 15.99538269 36.24120483 15.18807983 35.88250732 C13.00139351 34.91061448 10.81505789 33.93793861 8.62890625 32.96484375 C7.65865005 32.5334182 7.65865005 32.5334182 6.66879272 32.09327698 C4.42773439 31.09459644 2.19479955 30.09739977 0 29 C0 19.43 0 9.86 0 0 Z " fill="#E16315" transform="translate(10,299)"/>
<path d="M0 0 C2.55597642 1.00007922 5.04214428 2.0886056 7.53173828 3.24365234 C8.39283203 3.62521484 9.25392578 4.00677734 10.14111328 4.39990234 C12.23759216 5.33167074 14.32504438 6.27941839 16.40673828 7.24365234 C15.11644752 10.11623689 13.812364 12.05242623 11.47314453 14.15380859 C10.90660156 14.66878906 10.34005859 15.18376953 9.75634766 15.71435547 C9.16660156 16.23964844 8.57685547 16.76494141 7.96923828 17.30615234 C6.80345607 18.35907555 5.63807833 19.4124468 4.47314453 20.46630859 C3.95695557 20.92787354 3.4407666 21.38943848 2.90893555 21.86499023 C2.41321045 22.31994873 1.91748535 22.77490723 1.40673828 23.24365234 C0.88854188 23.68717214 0.37034549 24.13069194 -0.16355383 24.58765173 C-2.6901903 27.51420168 -2.00279253 31.43336148 -1.97421265 35.12609863 C-1.97889262 36.04534449 -1.98357259 36.96459035 -1.98839438 37.91169214 C-2.00040064 41.00491236 -1.99086513 44.09769413 -1.98144531 47.19091797 C-1.98550851 49.40321614 -1.99084896 51.61551229 -1.99737549 53.82780457 C-2.01108482 59.8462818 -2.00573549 65.86460523 -1.99623823 71.88308525 C-1.98866036 78.17177632 -1.99568202 84.46045394 -2.00039673 90.74914551 C-2.00621 101.98848214 -1.99686769 113.22775517 -1.98161872 124.46707684 C-1.96821506 134.66200527 -1.97054301 144.85683123 -1.984375 155.05175781 C-2.000422 166.88484508 -2.00640963 178.71788269 -1.99753821 190.55098295 C-1.99285313 196.81703878 -1.99225974 203.08302398 -2.00214767 209.34907532 C-2.01079241 215.23908349 -2.00484107 221.12889753 -1.9874649 227.01888466 C-1.98348671 229.18490081 -1.98465673 231.35093321 -1.9912529 233.51694298 C-1.99940588 236.46525378 -1.98922258 239.41293572 -1.97421265 242.36120605 C-1.98090481 243.22588454 -1.98759698 244.09056302 -1.99449193 244.98144388 C-2.09905329 249.23378451 -2.09905329 249.23378451 -0.25683081 252.89058924 C2.27124427 254.94679786 5.16582035 256.12144552 8.13330078 257.40380859 C8.81560257 257.70530319 9.49790436 258.00679779 10.20088196 258.31742859 C12.47497163 259.3203204 14.75330896 260.31316366 17.03173828 261.30615234 C18.65253902 262.01873957 20.27305751 262.73196908 21.89331055 263.44580078 C26.19514486 265.33901975 30.50060833 267.22383608 34.80706787 269.10650635 C38.98390502 270.93353551 43.15818725 272.76637783 47.33251953 274.59912109 C48.99242309 275.32781895 50.65233524 276.05649724 52.31225586 276.78515625 C53.13948151 277.14828918 53.96670715 277.51142212 54.81900024 277.88555908 C57.36966783 279.00481102 59.92076126 280.12308774 62.47192383 281.24121094 C75.44755729 286.93045034 88.39995103 292.67098909 101.34423828 298.43115234 C114.48430332 304.2775725 127.62445646 310.12355496 140.78173828 315.93115234 C141.44510193 316.22406158 142.10846558 316.51697083 142.79193115 316.8187561 C151.229072 320.54244711 159.67886929 324.23633523 168.13720703 327.91162109 C169.04114197 328.30461899 169.9450769 328.69761688 170.87640381 329.1025238 C175.3106869 331.03012608 179.74609344 332.95505945 184.18359375 334.87524414 C185.78014452 335.56828142 187.37666314 336.26139276 188.97314453 336.95458984 C189.71300095 337.27360764 190.45285736 337.59262543 191.21513367 337.92131042 C196.29334986 340.13026392 196.29334986 340.13026392 197.40673828 341.24365234 C198.92587444 341.38381261 200.45136861 341.45586575 201.97631836 341.5 C203.44099297 341.54346054 203.44099297 341.54346054 204.93525696 341.58779907 C209.4900904 341.68605685 214.04476696 341.75968882 218.6003418 341.81347656 C220.97927464 341.84974714 223.35801421 341.90391052 225.73608398 341.97753906 C241.70561791 342.46414847 253.84394548 341.00354638 267.88871765 333.05990601 C269.40673828 332.24365234 269.40673828 332.24365234 270.40673828 332.24365234 C270.40673828 339.17365234 270.40673828 346.10365234 270.40673828 353.24365234 C260.6391583 358.37853529 253.58761858 360.2232427 242.52783203 360.39208984 C241.11959806 360.42773433 239.71137982 360.46400469 238.30317688 360.50085449 C233.81663449 360.59993378 229.33172188 360.61535831 224.84423828 360.61865234 C223.69901451 360.62359585 223.69901451 360.62359585 222.53065491 360.62863922 C198.02547423 360.71965428 178.55857266 358.12413066 157.18847656 345.40234375 C151.56704016 342.10631579 145.57483312 339.65888217 139.57583618 337.14227295 C136.26818095 335.74663224 132.98367094 334.2984068 129.69580078 332.85693359 C128.34211522 332.26624488 126.98827158 331.67591831 125.63427734 331.0859375 C124.94628052 330.78608948 124.25828369 330.48624146 123.54943848 330.17730713 C119.75978527 328.52601319 115.97000374 326.87501393 112.18017578 325.22412109 C108.94317455 323.8140155 105.70619816 322.40385287 102.46923828 320.99365234 C101.65528595 320.63907959 100.84133362 320.28450684 100.00271606 319.91918945 C81.33223176 311.78497597 62.68606799 303.59563662 44.04174805 295.40167236 C36.82433239 292.22980107 29.60653254 289.05880508 22.3883667 285.88864136 C19.89905091 284.79518315 17.40996456 283.70120411 14.92089844 282.60717773 C6.05387638 278.71169693 -2.82143638 274.8357615 -11.70410156 270.97607422 C-12.75699875 270.51843689 -13.80989594 270.06079956 -14.8946991 269.58929443 C-17.4608327 268.47395622 -20.02702115 267.35874442 -22.59326172 266.24365234 C-22.68450081 233.60552241 -22.75529455 200.9674292 -22.79752304 168.32920086 C-22.8025259 164.47646573 -22.80770318 160.62373085 -22.81298828 156.77099609 C-22.81403752 156.00398196 -22.81508676 155.23696783 -22.8161678 154.44671084 C-22.83357577 142.02529434 -22.8651156 129.60395185 -22.9018729 117.18257926 C-22.93927145 104.43827506 -22.96149527 91.69400962 -22.9696157 78.94965279 C-22.97510574 71.08488495 -22.99244902 63.2203263 -23.02492759 55.35562284 C-23.04855958 49.32619553 -23.05108432 43.29694838 -23.04569244 37.26746941 C-23.04679467 34.79308852 -23.05477477 32.31869985 -23.07008362 29.84436607 C-23.0899409 26.4699152 -23.08521562 23.09636436 -23.07427979 19.72189331 C-23.08593115 18.73939665 -23.09758252 17.75689998 -23.10958695 16.74463069 C-23.05967484 11.05928189 -22.43398425 7.73148219 -18.59326172 3.24365234 C-13.10581406 -1.72118125 -6.94731184 -2.02624478 0 0 Z " fill="#399248" transform="translate(32.59326171875,21.75634765625)"/>
<path d="M0 0 C4.26201793 3.95016296 6.75372415 7.23838163 7.05469131 13.12695122 C7.07144788 15.03564455 7.06615242 16.94460829 7.04351807 18.85324097 C7.04693577 19.90784047 7.05035347 20.96243998 7.05387473 22.04899704 C7.06046254 25.58225773 7.03846162 29.11475853 7.01660156 32.64794922 C7.01547329 35.18082155 7.01610656 37.7136952 7.01837158 40.24656677 C7.01928241 45.699387 7.00793832 51.15196259 6.98542023 56.60473251 C6.95288448 64.48842351 6.94249162 72.37202198 6.93746826 80.25577284 C6.92871807 93.04719537 6.90211 105.83851574 6.86425781 118.62988281 C6.82753057 131.05403127 6.79922231 143.47815196 6.78222656 155.90234375 C6.78117567 156.66842527 6.78012477 157.4345068 6.77904204 158.22380291 C6.77382181 162.06708524 6.768767 165.91036777 6.76379442 169.75365043 C6.72234097 201.62750853 6.65160232 233.50123838 6.5625 265.375 C0.82899038 267.90947388 -4.90463338 270.44368935 -10.63835144 272.97769165 C-12.57830192 273.83508765 -14.51822417 274.69254755 -16.45811462 275.55007935 C-42.85914723 287.22056355 -69.26719748 298.87556452 -95.77368164 310.30493164 C-103.45925073 313.6272162 -111.12097894 317.00055452 -118.7734375 320.3984375 C-119.75686127 320.83472977 -120.74028503 321.27102203 -121.75350952 321.72053528 C-126.67100651 323.90254543 -131.5866445 326.08859148 -136.49951172 328.28100586 C-138.29648615 329.07940688 -140.09352102 329.87767188 -141.890625 330.67578125 C-142.72556488 331.0500827 -143.56050476 331.42438416 -144.42074585 331.81002808 C-145.1858548 332.14898102 -145.95096375 332.48793396 -146.73925781 332.8371582 C-147.40822083 333.1354805 -148.07718384 333.4338028 -148.76641846 333.74116516 C-150.4375 334.375 -150.4375 334.375 -152.4375 334.375 C-152.4375 327.445 -152.4375 320.515 -152.4375 313.375 C-140.54887414 307.7755022 -128.57574993 302.38860553 -116.5625 297.0625 C-114.57624315 296.18068683 -112.58999659 295.29885046 -110.60375977 294.41699219 C-97.5414599 288.62110989 -84.46308824 282.86237378 -71.375 277.125 C-58.69357045 271.5655203 -46.01628879 265.99701463 -33.35794067 260.38513184 C-31.75533428 259.67492784 -30.15237254 258.96552512 -28.54904175 258.25695801 C-26.3545882 257.28687432 -24.1614787 256.31381863 -21.96875 255.33984375 C-20.99078209 254.9084333 -20.99078209 254.9084333 -19.99305725 254.4683075 C-17.00017405 253.25910966 -17.00017405 253.25910966 -14.4375 251.375 C-14.31289061 248.49465835 -14.25399586 245.63742742 -14.23649597 242.75566101 C-14.22717476 241.84039054 -14.21785354 240.92512007 -14.20824987 239.98211414 C-14.17831131 236.89003674 -14.15584015 233.79795189 -14.13354492 230.70581055 C-14.11419716 228.4985582 -14.09457304 226.29130827 -14.07469177 224.08406067 C-13.90099727 203.89462014 -13.80747563 183.70441789 -13.73362255 163.5143919 C-13.72355433 160.80996825 -13.71330339 158.10554536 -13.70288086 155.40112305 C-13.70029864 154.72895734 -13.69771641 154.05679162 -13.69505594 153.36425725 C-13.65200469 142.49529957 -13.56364502 131.62718085 -13.45753094 120.75867584 C-13.34943413 109.59414629 -13.28809468 98.42991016 -13.26776773 87.26483947 C-13.25500541 80.99832163 -13.22167011 74.73348193 -13.13817406 68.46747398 C-13.06034783 62.56454196 -13.0396639 56.66410164 -13.06191444 50.76072502 C-13.06021622 48.59998079 -13.03812085 46.43913625 -12.99357605 44.27885056 C-12.47756945 31.05404666 -12.47756945 31.05404666 -18.53380233 19.83634931 C-21.04092729 17.46150418 -23.65619702 15.42995509 -26.4375 13.375 C-28.51165357 11.76616795 -30.4720471 10.12167899 -32.4375 8.375 C-32.4375 7.715 -32.4375 7.055 -32.4375 6.375 C-9.95446565 -4.7057474 -9.95446565 -4.7057474 0 0 Z " fill="#399248" transform="translate(495.4375,22.625)"/>
<path d="M0 0 C3.03956272 0.91142545 6.11040884 1.61688508 9.20117188 2.33081055 C22.30891177 5.39570462 35.10568125 9.55934192 47.92773438 13.62792969 C51.2331883 14.66800175 54.5466024 15.67788051 57.86279297 16.68310547 C105.34019694 31.26691526 105.34019694 31.26691526 119.34326172 44.70263672 C120.01228516 45.34330078 120.68130859 45.98396484 121.37060547 46.64404297 C129.89682978 55.54170676 138.90813364 68.79419273 142.34326172 80.70263672 C142.03892209 84.27355504 140.42071278 85.94844619 137.96826172 88.45263672 C133.00783496 93.92130393 131.25317864 99.42330135 130.34326172 106.70263672 C124.29394753 104.80295641 118.52795271 102.57576631 112.76904297 99.92919922 C111.97618896 99.56955078 111.18333496 99.20990234 110.36645508 98.83935547 C108.67337816 98.07109339 106.98114584 97.30096767 105.28970337 96.52911377 C100.78098536 94.47245423 96.26524091 92.43134563 91.74951172 90.39013672 C90.39796745 89.77883408 90.39796745 89.77883408 89.01911926 89.15518188 C81.59644768 85.80366396 74.13886565 82.54223934 66.65576172 79.32763672 C54.28063355 74.00400956 41.96243196 68.55758652 29.65576172 63.07763672 C28.70791809 62.65561981 27.76007446 62.23360291 26.7835083 61.79879761 C25.83336853 61.37575348 24.88322876 60.95270935 23.90429688 60.5168457 C21.96989693 59.65558187 20.03548935 58.7943352 18.10107422 57.93310547 C17.13642242 57.50360092 16.17177063 57.07409637 15.17788696 56.63157654 C4.47034826 51.86594753 -6.24852838 47.12604555 -16.96923828 42.39013672 C-17.85235687 41.99985291 -18.73547546 41.60956909 -19.64535522 41.2074585 C-30.63901091 36.34921195 -41.64143139 31.51159732 -52.65673828 26.70263672 C-46.76743683 20.78364945 -46.76743683 20.78364945 -43.71923828 18.32763672 C-43.09146484 17.80427734 -42.46369141 17.28091797 -41.81689453 16.74169922 C-38.30001624 15.05003625 -35.21760336 16.17128816 -31.61406898 17.39800072 C-29.17900044 18.3213066 -26.76438681 19.2864942 -24.35131836 20.26586914 C-23.43130539 20.63366989 -22.51129242 21.00147064 -21.56340027 21.38041687 C-18.51536693 22.60060626 -15.47085228 23.8293344 -12.42626953 25.05810547 C-10.27688057 25.9204791 -8.12727426 26.78231121 -5.97746277 27.64363098 C-0.29237747 29.92301545 5.38978442 32.20960092 11.0713501 34.4977417 C16.71695849 36.77006944 22.36514766 39.03596054 28.01318359 41.30224609 C36.74048855 44.80504115 45.46694451 48.30994049 54.19238281 51.81738281 C55.2249716 52.23244017 56.25756039 52.64749752 57.32143974 53.07513237 C62.20009581 55.03634452 67.07843561 56.99833687 71.95611572 58.9619751 C76.15492229 60.65225976 80.35464835 62.34023726 84.55513954 64.02633095 C86.05431362 64.62865176 87.55311206 65.23190852 89.05150414 65.8361721 C91.07270086 66.65120579 93.09513687 67.46308296 95.11791992 68.27416992 C96.23350784 68.72299026 97.34909576 69.17181061 98.49848938 69.63423157 C100.78380191 70.49252158 102.96241113 71.18798438 105.34326172 71.70263672 C105.46701172 70.96013672 105.59076172 70.21763672 105.71826172 69.45263672 C106.30109931 66.8881513 107.12990621 65.0109716 108.34326172 62.70263672 C107.75765976 62.5393689 107.1720578 62.37610107 106.56871033 62.20788574 C99.73421929 60.23779622 93.18781551 57.77360127 86.59716797 55.10888672 C85.46002853 54.65316284 84.3228891 54.19743896 83.15129089 53.72790527 C80.04771508 52.48304398 76.94574948 51.23431946 73.84446716 49.98376465 C70.57285316 48.6655917 67.29922957 47.35242714 64.02587891 46.03857422 C56.96351564 43.20271254 49.90384578 40.36019023 42.8447876 37.51611328 C38.22014725 35.65286433 33.59496635 33.79095954 28.96972656 31.92919922 C9.75751451 24.19541285 -9.45120626 16.4529966 -28.65673828 8.70263672 C-27.87008789 7.92218994 -27.0834375 7.14174316 -26.27294922 6.33764648 C-24.73245067 4.78607866 -23.22372817 3.19958086 -21.79736328 1.54248047 C-14.9095178 -5.38805827 -8.30465337 -2.59379639 0 0 Z " fill="#FCB10F" transform="translate(97.65673828125,244.29736328125)"/>
<path d="M0 0 C4.97622916 4.2121372 9.81119682 8.53629741 14.5625 13 C15.25069824 13.64501465 15.93889648 14.2900293 16.64794922 14.95458984 C21.97778514 19.97644167 27.18525551 25.10985974 32.30688477 30.34375 C32.83725342 30.88257812 33.36762207 31.42140625 33.9140625 31.9765625 C34.3673291 32.44143066 34.8205957 32.90629883 35.28759766 33.38525391 C37.12288705 35.20293067 37.12288705 35.20293067 40.0619297 37.06743908 C42.88157408 39.43080553 42.9933017 39.9648043 43.73828697 43.8792696 C43.76340961 45.43122674 43.75548552 46.98393188 43.7215271 48.53572083 C43.72665365 49.39345539 43.7317802 50.25118996 43.7370621 51.13491648 C43.7469437 54.00843455 43.71395029 56.87984956 43.68115234 59.75317383 C43.67945989 61.81299795 43.68040992 63.87282569 43.68380737 65.93264771 C43.68553052 71.52546501 43.65022808 77.11751192 43.60836363 82.71015 C43.57088325 88.55442298 43.56733338 94.39871316 43.56021118 100.24308777 C43.54155449 111.31058157 43.49230599 122.37772023 43.43211424 133.44505757 C43.365075 146.04464178 43.33206655 158.64424285 43.30194163 171.24396098 C43.23920793 197.16283763 43.13365659 223.08139893 43 249 C40.64129297 247.70030429 38.31827678 246.36874305 36 245 C35.34203161 244.63385851 34.68406321 244.26771702 34.00615638 243.89048034 C30.39180287 241.67037051 29.18219157 240.74457353 28.1386652 236.47992992 C28.10941771 235.09939705 28.11853212 233.71772035 28.15821838 232.33744812 C28.15223741 231.57363526 28.14625644 230.80982239 28.14009422 230.02286369 C28.12857524 227.46678598 28.16703302 224.91393474 28.20532227 222.3581543 C28.20729705 220.52492855 28.20618792 218.69169726 28.20222473 216.85847473 C28.20021531 211.88323805 28.24138466 206.9091814 28.29024243 201.93421912 C28.33398585 196.73459329 28.33811231 191.53494074 28.34642029 186.3351593 C28.3681818 176.48942583 28.4256315 166.64423609 28.49586672 156.79874212 C28.57409408 145.58972648 28.61259267 134.38068495 28.64773476 123.17146432 C28.72091344 100.11400804 28.84404718 77.05703447 29 54 C25.7 54 22.4 54 19 54 C19 112.41 19 170.82 19 231 C17.68 230.34 16.36 229.68 15 229 C14.16238947 228.6620362 13.32477894 228.3240724 12.46178627 227.97586727 C9.2095332 226.31071765 7.29050626 224.87314474 5 222 C3.05095065 215.64727327 3.73947755 208.57935034 3.86474609 202.01977539 C3.86756803 199.95965717 3.86598115 197.89952889 3.86032104 195.8394165 C3.85745344 190.25441498 3.91621377 184.67156405 3.98606062 179.08706212 C4.04860366 173.24821095 4.0544502 167.40930962 4.0663147 161.57017517 C4.09738751 150.51660969 4.17943683 139.46403407 4.27980959 128.41090435 C4.39161089 115.82587367 4.44657279 103.24079553 4.49676394 90.65539181 C4.60127051 64.76971257 4.7771455 38.88491176 5 13 C3.35 13 1.7 13 0 13 C0 8.71 0 4.42 0 0 Z " fill="#FEE2A8" transform="translate(429,12)"/>
<path d="M0 0 C0.33 0 0.66 0 1 0 C1.25696333 28.15486728 1.45093871 56.30955884 1.56993389 84.46536255 C1.62665431 97.53866779 1.70398264 110.61124445 1.82983398 123.68408203 C1.93947443 135.07843987 2.01044038 146.47227009 2.03497344 157.86714077 C2.0493148 163.90097301 2.08301345 169.93329588 2.16303062 175.96664429 C2.23775514 181.64699943 2.26071698 187.32522536 2.24418449 193.00602531 C2.24720828 195.08943193 2.26905987 197.17291043 2.31126022 199.2558918 C2.6143653 214.9900931 2.6143653 214.9900931 -1.42735863 220.02209473 C-5.13297458 222.79476698 -8.62587702 224.54195901 -13 226 C-13 167.59 -13 109.18 -13 49 C-16.3 49 -19.6 49 -23 49 C-22.98479042 50.41771651 -22.98479042 50.41771651 -22.96927357 51.86407375 C-22.72494415 74.87466563 -22.54425488 97.88508906 -22.43006611 120.89670467 C-22.37337522 132.02511163 -22.29610506 143.15266108 -22.17016602 154.28051758 C-22.06043306 163.9810532 -21.9895381 173.6809678 -21.96502656 183.38210684 C-21.95070026 188.51791468 -21.91710289 193.6519461 -21.83696938 198.78718376 C-21.76209585 203.62470272 -21.73931137 208.45972045 -21.75581551 213.29776382 C-21.75279818 215.06954756 -21.73103158 216.84141802 -21.68873978 218.61269951 C-21.3858653 231.95642799 -21.3858653 231.95642799 -25.42735863 237.07315254 C-29.09528335 240.15486188 -32.44541204 242.48180401 -37 244 C-37.35089935 216.99206722 -37.61515607 189.9844776 -37.77718258 162.97472191 C-37.8544256 150.43256664 -37.95966959 137.89183024 -38.1315918 125.35058594 C-38.2814251 114.4154229 -38.37794827 103.48128762 -38.41132742 92.54512656 C-38.43083137 86.75751238 -38.47642886 80.97283747 -38.58595085 75.18616867 C-38.68837028 69.73016349 -38.71906098 64.27828445 -38.69661522 58.82140923 C-38.70071604 56.82748984 -38.73021553 54.8334215 -38.78808212 52.84033775 C-39.22355772 37.05682667 -39.22355772 37.05682667 -33.79004097 30.84990311 C-30.7123659 27.79628586 -27.40189269 25.13836227 -23.93891537 22.53773046 C-20.71397154 19.9800663 -17.91044252 17.02521385 -15.0625 14.0625 C-10.54819168 9.48846336 -5.91723141 5.14373433 -1 1 C-0.67 0.67 -0.34 0.34 0 0 Z " fill="#FEE2A8" transform="translate(77,17)"/>
<path d="M0 0 C2.43148911 1.59628828 4.5845869 3.16203378 6.8125 5 C7.40998047 5.47695312 8.00746094 5.95390625 8.62304688 6.4453125 C10.09070918 7.61944235 11.54656139 8.80830803 13 10 C10.51174081 11.65883946 8.49539138 12.70255392 5.75878906 13.79893494 C4.8933699 14.14759613 4.02795074 14.49625732 3.13630676 14.85548401 C2.18898178 15.23309372 1.2416568 15.61070343 0.265625 15.99975586 C-0.73507523 16.40178223 -1.73577545 16.80380859 -2.76679993 17.21801758 C-6.09325754 18.55349782 -9.42162913 19.88413981 -12.75 21.21484375 C-15.08012469 22.14938504 -17.41011941 23.08425044 -19.73999023 24.01942444 C-25.27412785 26.23993109 -30.80943759 28.45748923 -36.34536457 30.67352921 C-45.56613975 34.36478405 -54.78447954 38.06211376 -64.00292969 41.75917053 C-68.56941409 43.59055034 -73.13649315 45.42043368 -77.70410156 47.24900818 C-83.02238577 49.37874848 -88.33827927 51.51436192 -93.65264893 53.65385056 C-96.0072199 54.60074986 -98.36240006 55.54600086 -100.71844482 56.48921585 C-104.48005409 57.99544843 -108.23812565 59.51034036 -111.99609375 61.02563477 C-113.16697037 61.49331992 -114.33784698 61.96100508 -115.54420471 62.44286251 C-116.62201706 62.87897634 -117.69982941 63.31509016 -118.81030273 63.76441956 C-119.76589584 64.14852777 -120.72148895 64.53263597 -121.70603943 64.92838383 C-124.12871065 65.9011289 -124.12871065 65.9011289 -126 68 C-126.24515697 70.50375468 -126.37333658 72.90549479 -126.4140625 75.4140625 C-126.43342865 76.14370209 -126.4527948 76.87334167 -126.4727478 77.62509155 C-126.53258422 79.95827502 -126.57894423 82.29150773 -126.625 84.625 C-126.66317614 86.20575082 -126.70222765 87.78648076 -126.7421875 89.3671875 C-126.83828878 93.2446223 -126.92230412 97.12215449 -127 101 C-128.90954471 101.9751107 -130.82146535 102.94556958 -132.734375 103.9140625 C-133.79881836 104.45498535 -134.86326172 104.9959082 -135.95996094 105.55322266 C-139.30406241 107.14470557 -142.40159029 108.18217961 -146 109 C-146.08636719 108.3709375 -146.17273438 107.741875 -146.26171875 107.09375 C-147.18616963 101.4622327 -148.58896093 97.36761934 -151.87890625 92.69140625 C-153 91 -153 91 -154 88 C-156.00016466 86.79117904 -156.00016466 86.79117904 -158 86 C-157.45594438 81.11095228 -155.90081558 77.26766535 -153.5625 73 C-153.21195557 72.35353516 -152.86141113 71.70707031 -152.50024414 71.04101562 C-132.51611938 35.09840802 -95.62806943 24.81472426 -58.23242188 13.90039062 C-51.73081122 12.072586 -45.20416418 10.35067091 -38.66015625 8.68164062 C-35.0558996 7.75808294 -31.46630939 6.78514629 -27.875 5.8125 C-25.58405322 5.20560928 -23.29237087 4.6014892 -21 4 C-19.96746094 3.72712158 -19.96746094 3.72712158 -18.9140625 3.44873047 C-16.7360885 2.87565591 -14.55592984 2.31170961 -12.375 1.75 C-11.37895752 1.4866687 -11.37895752 1.4866687 -10.36279297 1.21801758 C-3.33110922 -0.57014231 -3.33110922 -0.57014231 0 0 Z " fill="#FDB10F" transform="translate(430,242)"/>
<path d="M0 0 C4.37577243 0.87515449 7.91883542 2.14125279 11.921875 3.96484375 C12.60297836 4.26989334 13.28408173 4.57494293 13.98582458 4.88923645 C15.46593859 5.55273082 16.94502303 6.21852564 18.42318726 6.88635254 C22.43510367 8.69875268 26.45452828 10.49439326 30.47265625 12.29296875 C31.74082939 12.86152084 31.74082939 12.86152084 33.03462219 13.44155884 C43.06133372 17.93284573 53.12423638 22.34138515 63.1875 26.75 C65.78912822 27.8902172 68.39070325 29.03055546 70.99220276 30.17106628 C72.54426379 30.85139572 74.09644733 31.53144577 75.64878845 32.21113586 C80.77371859 34.45651516 85.88896017 36.7231871 91 39 C87.62142539 41.25238307 84.09067814 42.8482135 80.3984375 44.5 C79.62522156 44.84829865 78.85200562 45.19659729 78.05535889 45.55545044 C75.49661262 46.70671837 72.93594313 47.85362797 70.375 49 C69.50083435 49.39217712 68.6266687 49.78435425 67.72601318 50.18841553 C54.45612294 56.14149727 41.16769907 62.05318565 27.85919189 67.91943359 C26.03671779 68.72300322 24.21473614 69.52769063 22.39324951 70.33349609 C19.84975788 71.45790497 17.30415251 72.57737193 14.7578125 73.6953125 C13.99821228 74.03192902 13.23861206 74.36854553 12.45599365 74.71536255 C7.22925601 77 7.22925601 77 5 77 C5 56.21 5 35.42 5 14 C3.35 14 1.7 14 0 14 C0 9.38 0 4.76 0 0 Z " fill="#B14D10" transform="translate(107,382)"/>
<path d="M0 0 C0 24.75 0 49.5 0 75 C-5.71480899 73.09506367 -10.88663783 71.28140888 -16.3125 68.83984375 C-16.98835144 68.53744278 -17.66420288 68.23504181 -18.36053467 67.92347717 C-19.81697873 67.27136222 -21.27258582 66.61737526 -22.72741699 65.96166992 C-26.67375813 64.18319851 -30.62640706 62.41882727 -34.578125 60.65234375 C-35.82496063 60.09430557 -35.82496063 60.09430557 -37.09698486 59.5249939 C-47.29241034 54.96613558 -57.52131431 50.48359939 -67.75 46 C-69.5820397 45.19655247 -71.41407116 44.39308614 -73.24609375 43.58959961 C-77.49701426 41.72552809 -81.74836734 39.86244661 -86 38 C-82.87818254 35.45021147 -79.7464115 33.86994356 -76.05078125 32.27734375 C-75.45713776 32.01956146 -74.86349426 31.76177917 -74.25186157 31.4961853 C-72.27410746 30.63850605 -70.29329749 29.78812407 -68.3125 28.9375 C-66.91387896 28.33223614 -65.51552894 27.72634571 -64.11743164 27.11987305 C-61.8679408 26.14411939 -59.61829073 25.16875218 -57.36784363 24.19520569 C-48.454181 20.33786162 -39.56462236 16.42579727 -30.67391968 12.51589966 C-26.29220269 10.58894497 -21.90990894 8.6633059 -17.52734375 6.73828125 C-16.76813629 6.40444427 -16.00892883 6.0706073 -15.22671509 5.72665405 C-13.81502394 5.10655839 -12.40272569 4.48784229 -10.98971558 3.87075806 C-9.65309085 3.28581176 -8.31857216 2.69603141 -6.9861145 2.10165405 C-2.22051738 0 -2.22051738 0 0 0 Z " fill="#B14D10" transform="translate(400,384)"/>
<path d="M0 0 C2.43148911 1.59628828 4.5845869 3.16203378 6.8125 5 C7.40998047 5.47695313 8.00746094 5.95390625 8.62304688 6.4453125 C10.09070918 7.61944235 11.54656139 8.80830803 13 10 C10.23142821 12.76857179 6.89281018 13.93764668 3.34765625 15.46484375 C2.55779327 15.80968307 1.7679303 16.1545224 0.95413208 16.5098114 C-0.76728259 17.26073384 -2.48963619 18.00950664 -4.21279907 18.75640869 C-7.92336563 20.36484867 -11.62939288 21.98362767 -15.33580017 23.60162354 C-17.28027229 24.45027796 -19.22498899 25.29837216 -21.16993713 26.14593506 C-30.50318436 30.21385538 -39.81898262 34.3207622 -49.13018799 38.43884277 C-51.80827427 39.62313132 -54.48686075 40.80628251 -57.16552734 41.98925781 C-65.99897382 45.89211691 -74.82502741 49.81088904 -83.640625 53.75390625 C-85.33095483 54.50899318 -87.02130274 55.26403965 -88.71166992 56.01904297 C-91.88039541 57.43445619 -95.04687938 58.85473058 -98.2121582 60.27783203 C-99.62182841 60.90805465 -101.03157325 61.53811038 -102.44140625 62.16796875 C-103.08188904 62.45756973 -103.72237183 62.74717072 -104.38226318 63.04554749 C-108.7726687 65 -108.7726687 65 -111 65 C-111 57.74 -111 50.48 -111 43 C-90.85574024 34.55794225 -70.60132577 26.40455098 -50.31030273 18.32226562 C-36.60668946 12.86239988 -36.60668946 12.86239988 -22.95703125 7.26953125 C-21.98685059 6.86763832 -21.98685059 6.86763832 -20.99707031 6.45762634 C-18.15897972 5.28106641 -15.32511177 4.09598639 -12.49755859 2.89428711 C-11.55348145 2.50120361 -10.6094043 2.10812012 -9.63671875 1.703125 C-8.45662231 1.20280762 -8.45662231 1.20280762 -7.25268555 0.69238281 C-4.66132786 -0.10409387 -2.69715968 -0.27118625 0 0 Z " fill="#FBB010" transform="translate(454,260)"/>
<path d="M0 0 C0.73046875 2.06640625 0.73046875 2.06640625 1.1875 4.5625 C1.34605469 5.38878906 1.50460937 6.21507812 1.66796875 7.06640625 C1.83232422 8.02353516 1.83232422 8.02353516 2 9 C-21.90905104 17.42651911 -45.86043694 25.71736185 -69.87329102 33.84375 C-70.84632172 34.17352844 -71.81935242 34.50330688 -72.8218689 34.84307861 C-74.64397875 35.46049051 -76.46648389 36.07673758 -78.28945923 36.69158936 C-81.5322099 37.79054496 -84.73330466 38.88953793 -87.89770508 40.20019531 C-90 41 -90 41 -93 41 C-94.31626692 37.38026598 -95 34.90432869 -95 31 C-75.68656015 23.97035242 -56.257796 17.30136233 -36.79077148 10.7109375 C-35.81972977 10.38186401 -34.84868805 10.05279053 -33.84822083 9.71374512 C-31.93957113 9.06720347 -30.03055088 8.42175461 -28.12113953 7.77746582 C-23.69638974 6.279281 -19.28657313 4.75306048 -14.89990234 3.14648438 C-13.71952644 2.71677338 -13.71952644 2.71677338 -12.51530457 2.27838135 C-11.05601202 1.74399281 -9.5994911 1.20194788 -8.1464386 0.65081787 C-3.33141772 -1.11047257 -3.33141772 -1.11047257 0 0 Z " fill="#502A1B" transform="translate(398,51)"/>
<path d="M0 0 C1.78284814 3.29826907 2 5.1774751 2 9 C1.37392853 9.21138611 0.74785706 9.42277222 0.10281372 9.64056396 C-7.24348765 12.12152952 -14.58855022 14.60614658 -21.93297958 17.09264755 C-23.86584251 17.74690029 -25.79883345 18.4007737 -27.73184204 19.05459595 C-46.45923674 25.38803529 -46.45923674 25.38803529 -65.11328125 31.93359375 C-65.9134668 32.21927216 -66.71365234 32.50495056 -67.53808594 32.79928589 C-71.13344935 34.08571988 -74.72434354 35.38321031 -78.31005859 36.69628906 C-79.54191895 37.14069336 -80.7737793 37.58509766 -82.04296875 38.04296875 C-83.08477295 38.42477295 -84.12657715 38.80657715 -85.19995117 39.19995117 C-87.9554655 39.9872753 -90.15295146 40.16366854 -93 40 C-93.66 37.03 -94.32 34.06 -95 31 C-86.41659421 27.27905319 -77.73360769 24.0934325 -68.86328125 21.12890625 C-67.53096506 20.68000874 -66.19878936 20.23069407 -64.866745 19.7809906 C-61.38775562 18.60751425 -57.90715449 17.43889987 -54.42608643 16.27160645 C-48.88596229 14.41289952 -43.34845857 12.54639939 -37.8107872 10.68040085 C-35.81845853 10.00985578 -33.82544191 9.34138932 -31.83230591 8.67324829 C-26.33300654 6.82649582 -20.84284722 4.96549479 -15.39599609 2.96826172 C-14.59896774 2.67692856 -13.80193939 2.3855954 -12.98075867 2.08543396 C-11.58380297 1.56944921 -10.19015775 1.04434956 -8.80110168 0.50746155 C-5.56260183 -0.69206554 -3.22887878 -1.53649436 0 0 Z " fill="#502A1B" transform="translate(398,100)"/>
<path d="M0 0 C0.73046875 2.06640625 0.73046875 2.06640625 1.1875 4.5625 C1.34605469 5.38878906 1.50460937 6.21507812 1.66796875 7.06640625 C1.83232422 8.02353516 1.83232422 8.02353516 2 9 C-19.89051983 16.67912691 -41.79673583 24.31176764 -63.7507019 31.80786133 C-65.82945972 32.51788412 -67.90785123 33.22898031 -69.98587036 33.94116211 C-72.9035415 34.94059929 -75.82262849 35.9357808 -78.7421875 36.9296875 C-79.60805984 37.22692719 -80.47393219 37.52416687 -81.36604309 37.83041382 C-85.22204117 39.13781449 -88.96590942 40.35311025 -93 41 C-94.31626692 37.38026598 -95 34.90432869 -95 31 C-76.84560181 24.2933161 -58.5369208 18.05573706 -40.20678711 11.84960938 C-38.75031517 11.35602936 -38.75031517 11.35602936 -37.26441956 10.85247803 C-35.33856687 10.2001726 -33.4123326 9.54899257 -31.48570251 8.89898682 C-26.70870075 7.28213889 -21.94784757 5.63128174 -17.20556641 3.91503906 C-16.28471756 3.5839212 -15.36386871 3.25280334 -14.41511536 2.91165161 C-12.67207712 2.28241351 -10.93173517 1.64563913 -9.19462585 1.00021362 C-8.42181778 0.72186676 -7.6490097 0.4435199 -6.8527832 0.15673828 C-6.17818558 -0.09163788 -5.50358795 -0.34001404 -4.80854797 -0.59591675 C-3 -1 -3 -1 0 0 Z " fill="#502A1B" transform="translate(398,197)"/>
<path d="M0 0 C0.99 0.495 0.99 0.495 2 1 C2.90298275 3.94862885 3.40378723 6.97634951 4 10 C-2.61916034 12.71825324 -9.27902347 15.19399854 -16.0625 17.46875 C-17.00054977 17.78614136 -17.93859955 18.10353271 -18.90507507 18.43054199 C-21.93595901 19.45595198 -24.9679729 20.47797578 -28 21.5 C-45.79033195 27.50967149 -45.79033195 27.50967149 -63.51171875 33.71875 C-64.30595245 34.00182007 -65.10018616 34.28489014 -65.91848755 34.57653809 C-69.5969723 35.88977666 -73.27203514 37.21180251 -76.94335938 38.54492188 C-78.23693094 39.00924897 -79.53054783 39.4734498 -80.82421875 39.9375 C-81.92854248 40.33839844 -83.03286621 40.73929688 -84.1706543 41.15234375 C-87 42 -87 42 -91 42 C-92.31626692 38.38026598 -93 35.90432869 -93 32 C-91.80141357 31.59386475 -90.60282715 31.18772949 -89.36791992 30.76928711 C-62.43180218 21.63818807 -35.53406521 12.40566525 -8.69544983 2.99160767 C-5.80226763 1.97721345 -2.90858659 0.96952886 0 0 Z " fill="#502A1B" transform="translate(396,147)"/>
<path d="M0 0 C22.48197878 7.39423672 44.88019112 15.02423186 67.25 22.75 C67.91273674 22.97888412 68.57547348 23.20776825 69.25829315 23.44358826 C77.50661965 26.29257296 85.75383101 29.14477651 94 32 C93.54177532 35.46941546 93.10868317 38.67395049 92 42 C86.48599174 41.40180567 81.6645242 40.02309382 76.45703125 38.1484375 C75.63090836 37.85742661 74.80478546 37.56641571 73.95362854 37.2665863 C71.2377332 36.30878304 68.52506862 35.34218076 65.8125 34.375 C61.9582644 33.00821752 58.10251114 31.64576962 54.24609375 30.28515625 C53.25260925 29.93416367 52.25912476 29.58317108 51.23553467 29.22154236 C43.98603801 26.67082176 36.70716678 24.21963437 29.41015625 21.80859375 C27.37452901 21.13186594 25.33896491 20.45494815 23.3034668 19.77783203 C20.34782561 18.79498765 17.39093423 17.81766417 14.42788696 16.85736084 C11.68391799 15.96744228 8.94711727 15.05806624 6.2109375 14.14453125 C5.39009171 13.88465927 4.56924591 13.62478729 3.723526 13.35704041 C1.47021484 12.59301758 1.47021484 12.59301758 -2 11 C-2.8873867 8.66356323 -3.14251393 7.49032766 -2.44140625 5.078125 C-1.22070312 2.5390625 -1.22070312 2.5390625 0 0 Z " fill="#502A1B" transform="translate(115,147)"/>
<path d="M0 0 C7.73794846 2.25057554 15.37333102 4.76253515 23.00390625 7.3515625 C24.85809425 7.97905899 24.85809425 7.97905899 26.7497406 8.61923218 C29.36309969 9.50393635 31.97601099 10.38994779 34.58862305 11.27685547 C37.21039037 12.16674535 39.83276768 13.05479499 42.45581055 13.94091797 C59.70754702 19.7690084 76.89169198 25.76135962 94 32 C93.01 36.95 93.01 36.95 92 42 C84.82733127 40.56555937 78.07864572 38.44972106 71.1796875 36.03515625 C69.49101814 35.4506369 69.49101814 35.4506369 67.76823425 34.85430908 C64.13542249 33.59530459 60.50517152 32.32909491 56.875 31.0625 C54.38739946 30.19849206 51.89968754 29.33480472 49.41186523 28.47143555 C31.91367221 22.39235513 14.43474435 16.25890278 -3 10 C-2.69201674 8.51988629 -2.378482 7.04092675 -2.0625 5.5625 C-1.88847656 4.73878906 -1.71445313 3.91507813 -1.53515625 3.06640625 C-1 1 -1 1 0 0 Z " fill="#502A1B" transform="translate(115,196)"/>
<path d="M0 0 C4.16567293 0.60459301 7.97738839 1.54276278 11.95996094 2.8984375 C13.69533112 3.48540405 13.69533112 3.48540405 15.46575928 4.08422852 C16.70940247 4.51018311 17.95304565 4.9361377 19.234375 5.375 C20.55343819 5.82321902 21.87263454 6.27104635 23.19195557 6.71850586 C26.67517006 7.90114381 30.15642376 9.08945526 33.6373291 10.27886963 C37.07987895 11.45393539 40.52441272 12.62315498 43.96875 13.79296875 C48.02898717 15.17207286 52.08824768 16.5538331 56.14367676 17.94702148 C57.47662894 18.40482866 58.80959598 18.86259258 60.14257812 19.3203125 C60.79520882 19.54443314 61.44783951 19.76855377 62.12024689 19.99946594 C66.02865392 21.33753598 69.94542176 22.64632445 73.87202072 23.93000793 C75.73396245 24.53983937 77.59336757 25.15739844 79.45269775 25.77514648 C81.73366289 26.53256484 84.01881837 27.27751386 86.30853271 28.00805664 C87.81338226 28.51260376 87.81338226 28.51260376 89.34863281 29.02734375 C90.22739075 29.31343506 91.10614868 29.59952637 92.01153564 29.89428711 C94 31 94 31 94.8493042 32.92016602 C95.06619015 35.91352594 94.06897068 38.23325237 93 41 C85.24577336 40.47748125 78.31685116 37.92736428 71.02734375 35.37109375 C69.65921659 34.89776203 68.29084889 34.42512504 66.92225647 33.95314026 C63.3201824 32.70880054 59.72144965 31.45506362 56.12335205 30.19927979 C52.54449184 28.95203006 48.96255354 27.71369201 45.38085938 26.47460938 C37.88211538 23.8786487 30.38761766 21.27059429 22.89406586 18.65969086 C18.77197244 17.22399245 14.64889746 15.79111529 10.52601624 14.35768127 C6.35043321 12.90582275 2.17517603 11.45302847 -2 10 C-1.54177532 6.53058454 -1.10868317 3.32604951 0 0 Z " fill="#502A1B" transform="translate(114,99)"/>
<path d="M0 0 C7.99619098 2.32034502 15.88104952 4.93311526 23.765625 7.60546875 C25.08865764 8.05291938 26.41171733 8.50029005 27.73480225 8.94758606 C30.50198442 9.88356573 33.2687183 10.82085624 36.03515625 11.7590332 C38.82292345 12.70430966 41.6113215 13.64768325 44.40039062 14.58911133 C61.0078744 20.19492453 77.562716 25.90821661 94 32 C93.01 36.95 93.01 36.95 92 42 C85.85743583 40.73410293 80.0564906 39.12667282 74.15625 37.015625 C73.32479965 36.72315887 72.4933493 36.43069275 71.63670349 36.12936401 C69.85052075 35.500576 68.06513465 34.86952116 66.28048706 34.23638916 C61.51482837 32.54575224 56.74345166 30.87138738 51.97265625 29.1953125 C50.99188614 28.85027679 50.01111603 28.50524109 49.00062561 28.14974976 C37.43473458 24.08698761 25.82908578 20.14118887 14.22021484 16.20324707 C12.49649537 15.6185216 10.77294057 15.03331036 9.04957581 14.44754028 C7.49332611 13.91863034 5.93665789 13.39094967 4.37950134 12.86471558 C-0.77509297 11.11245352 -0.77509297 11.11245352 -3 10 C-2.69201674 8.51988629 -2.378482 7.04092675 -2.0625 5.5625 C-1.88847656 4.73878906 -1.71445313 3.91507813 -1.53515625 3.06640625 C-1 1 -1 1 0 0 Z " fill="#4F2A1B" transform="translate(115,50)"/>
<path d="M0 0 C0 15.18 0 30.36 0 46 C-2.31 44.02 -4.62 42.04 -7 40 C-10.04583626 38.66643223 -10.04583626 38.66643223 -13 40 C-14.86032415 42.50361381 -16.34225725 45.05623418 -17.80078125 47.8125 C-18.19652344 48.534375 -18.59226562 49.25625 -19 50 C-19.33 50 -19.66 50 -20 50 C-20 35.81 -20 21.62 -20 7 C-2 0 -2 0 0 0 Z " fill="#E56A4C" transform="translate(333,308)"/>
<path d="M0 0 C6.03416723 2.01138908 8.76212526 5.80303608 12.3125 10.875 C13 13 13 13 13 21 C1.12 21 -10.76 21 -23 21 C-23 11.4516129 -23 11.4516129 -20 7 C-13.49845441 0.57370378 -9.15518956 -0.70025529 0 0 Z " fill="#2B6C37" transform="translate(261,333)"/>
<path d="M0 0 C5.94 0 11.88 0 18 0 C13.76257738 3.17806696 12.16511112 3.82491149 7 4 C4.47279312 3.22807105 2.37015963 2.20926512 0 1 C0 0.67 0 0.34 0 0 Z " fill="#AC4B10" transform="translate(247,391)"/>
<path d="M0 0 C1.32 0.66 2.64 1.32 4 2 C4 2.66 4 3.32 4 4 C2.03533587 5.06775224 0.03144641 6.06553465 -2 7 C-2.66 6.67 -3.32 6.34 -4 6 C-2.68 4.02 -1.36 2.04 0 0 Z " fill="#3A8944" transform="translate(324,360)"/>
</svg>
