<svg xmlns="http://www.w3.org/2000/svg" width="1256" height="1256"><path d="M0 0h1256v1256H0V0Z" fill="#672CBC"/><path d="m424 499 2.809.647c34.67 8.139 67.39 21.496 99.191 37.353l2.965 1.477c19.07 9.561 37.52 20.332 55.035 32.523l1.878 1.302c14.21 9.868 28.211 19.94 41.255 31.323 2.862 2.37 5.743 4.373 8.867 6.375l.75-2.75c1.358-3.53 2.222-5.018 5.25-7.25l3.5-.625c4.851-1.033 7.799-3.878 11.463-7.085 6.92-6.02 14.471-11.122 22.037-16.29l2.491-1.705C701 560.992 721.13 549.038 742 538l2.598-1.386C794.453 510.184 853.28 490.78 910 490l1.944-.03c25.32-.38 49.79.057 74.63 5.563 2.438.516 2.438.516 5.001.668 4.015.417 6.529.892 9.425 3.822 1.963 2.748 3.683 5.555 5.375 8.477a7012.74 7012.74 0 0 0 3.89 6.336l1.913 3.179c2.52 4.127 5.223 8.116 7.947 12.11 5.993 8.918 11.624 18.05 17.238 27.21 2.143 3.49 4.303 6.967 6.463 10.445a3283.83 3283.83 0 0 1 16.943 27.634A2369.06 2369.06 0 0 0 1072.5 614.5c6.306 10.16 12.527 20.372 18.734 30.593 2.919 4.804 5.843 9.605 8.766 14.407a249850.795 249850.795 0 0 1 5.25 8.625l21 34.501a310346.182 310346.182 0 0 0 12.355 20.3c2.92 4.8 5.843 9.598 8.765 14.396a10965.93 10965.93 0 0 0 8.774 14.429 497.699 497.699 0 0 0 10.217 16.013C1169 771.785 1169 771.785 1169 774c-3.24 1.08-6.046 1.354-9.45 1.648l-3.974.354-2.108.184c-13.695 1.2-27.333 2.667-40.962 4.482-2.32.307-4.64.603-6.963.894-6.007.767-11.904 1.675-17.824 2.938-4.799.883-9.65 1.385-14.496 1.938-4.11.508-8.164 1.254-12.234 2.013-3.113.572-6.23 1.104-9.352 1.627-26.678 4.488-53.432 9.273-79.57 16.307a837.985 837.985 0 0 1-14.028 3.623C902.122 824.018 848.585 843.183 797 869l-2.881 1.429c-35.641 17.74-67.958 41.42-97.244 68.259-8.94 8.08-18.567 15.073-28.875 21.312 1.27 2.23 2.541 4.459 3.813 6.688l1.08 1.896A458.499 458.499 0 0 0 679 979h-10l-2 9c-2.522-2.522-3.824-4.197-5.48-7.23l-1.338-2.432-1.37-2.525-1.404-2.561c-1.14-2.082-2.276-4.166-3.408-6.252l-2.098.438c-20.738 3.934-37.834-.123-55.406-11.692-10.545-7.216-20.084-15.696-29.496-24.308-5.526-5.011-11.385-9.558-17.29-14.109a316.353 316.353 0 0 1-4.546-3.618C519.671 893.386 491.01 877.635 462 863l-2.74-1.387C415.553 839.672 368.131 824.617 321 812l-3.165-.857c-24.846-6.714-49.932-12.107-75.21-16.893l-2.284-.433c-10.439-1.97-20.9-3.779-31.383-5.495-2.629-.432-5.256-.874-7.884-1.314-26.761-4.42-53.658-7.872-80.626-10.752l-2.197-.236c-1.95-.208-3.902-.414-5.852-.619A166.18 166.18 0 0 1 103 774c1.462-3.952 3.326-7.461 5.457-11.094l1.027-1.754c1.106-1.887 2.217-3.77 3.329-5.652l2.332-3.966c4.812-8.164 9.73-16.255 14.759-24.288 4.994-8.006 9.795-16.123 14.596-24.246 5.902-9.983 11.864-19.918 18.002-29.758 3.536-5.672 7.007-11.38 10.435-17.117 11.182-18.704 22.593-37.267 34.026-55.818 2.03-3.295 4.055-6.592 6.08-9.889 11.899-19.375 23.824-38.719 36.301-57.728 4.767-7.28 9.422-14.623 14.031-22.003l1.967-3.148c2.979-4.684 2.979-4.684 5.658-9.539 2.015-.654 2.015-.654 4.68-1.219l2.977-.634 3.218-.647 3.285-.67c9.576-1.894 19.114-3.092 28.84-3.83l3.06-.257c36.06-2.858 71.723.06 106.94 8.257Z" fill="#DFCBF3"/><path d="M392 938c5.614.48 10.602 2.04 15.902 3.887l2.6.889a2712.6 2712.6 0 0 1 8.435 2.912l5.934 2.038c13.726 4.72 27.424 9.52 41.116 14.336a2042.044 2042.044 0 0 0 35.138 12c28.338 9.39 56.55 19.138 84.727 29.002a741262138.868 741262138.868 0 0 0 7.542 2.641A944.352 944.352 0 0 0 609 1011c-2.195 2.195-3.589 2.725-6.484 3.752l-2.827 1.014-3.084 1.086-3.203 1.144a4368.986 4368.986 0 0 1-10.215 3.629c-4.424 1.572-8.847 3.148-13.269 4.727l-3.322 1.184a914.347 914.347 0 0 0-20.483 7.612c-9.088 3.499-18.247 6.748-27.45 9.929-7.91 2.743-15.798 5.542-23.69 8.33-2.069.73-4.137 1.459-6.206 2.186-10.795 3.798-21.545 7.658-32.19 11.862-7.877 3.092-15.868 5.843-23.866 8.606-7.926 2.746-15.83 5.552-23.739 8.346-2.068.73-4.136 1.459-6.205 2.186-11.015 3.876-21.988 7.813-32.853 12.092a360.165 360.165 0 0 1-16.039 5.878c-6.363 2.196-12.699 4.446-19 6.812-.67.25-1.338.502-2.028.76-2.329.88-4.618 1.75-6.847 2.865 2.185 2.356 4.374 4.71 6.563 7.063l1.845 1.99a476.339 476.339 0 0 0 3.73 3.96 113.909 113.909 0 0 1 3.643 4.08l1.746 1.966 1.52 1.786c3.166 1.872 5.44.955 8.953.155 3.028-.912 5.99-1.97 8.957-3.063l2.58-.93c2.761-.996 5.518-2.002 8.276-3.007 2.875-1.04 5.75-2.077 8.627-3.114l5.7-2.058a1310.59 1310.59 0 0 1 21.423-7.515c11.055-3.79 22.038-7.77 33.008-11.802a1351.654 1351.654 0 0 1 23.398-8.323c11.25-3.896 22.452-7.919 33.648-11.97 15.085-5.457 30.172-10.897 45.352-16.087 9.332-3.203 18.595-6.59 27.861-9.977 9.667-3.533 19.351-7.003 29.089-10.34a506.837 506.837 0 0 0 14.132-5.08l3.02-1.131c1.892-.713 3.78-1.434 5.664-2.166 10.288-3.863 16.765-1.849 26.765 2.063 2.438.929 4.877 1.856 7.316 2.781l3.68 1.403c4.951 1.86 9.94 3.6 14.942 5.316 8.649 2.976 17.266 6.033 25.875 9.125 8.635 3.1 17.288 6.112 26.006 8.97a185.885 185.885 0 0 1 13.033 4.854c4.217 1.673 8.508 3.138 12.79 4.634a880.916 880.916 0 0 1 15.983 5.792c7.787 2.888 15.615 5.644 23.465 8.356a2061.006 2061.006 0 0 1 19.286 6.775c3.318 1.181 6.635 2.364 9.951 3.55a947.738 947.738 0 0 0 22.95 7.848 126.48 126.48 0 0 1 8.035 3.034c5.374 2.223 10.886 3.998 16.418 5.78 4.81 1.567 9.491 3.343 14.177 5.247 4.47 1.785 9.002 3.403 13.53 5.035l5.528 2 2.742.977c1.943.712 3.874 1.46 5.793 2.234l2.941 1.164 2.651 1.086c2.365.741 2.365.741 4.458-.108 2.317-1.608 4.218-3.38 6.208-5.38l2.394-2.4 2.473-2.51 2.496-2.499c4.513-4.511 4.513-4.511 8.379-9.564a396.594 396.594 0 0 0-23.664-9.23l-3.303-1.176-7.01-2.489a8319.366 8319.366 0 0 1-13.067-4.644 180094.56 180094.56 0 0 1-9.631-3.428c-12.369-4.4-24.724-8.834-37.075-13.283l-3.081-1.11a10283.62 10283.62 0 0 1-33.364-12.074l-3.002-1.092c-4.65-1.693-9.299-3.388-13.947-5.086a1980.377 1980.377 0 0 0-27.704-9.881c-7.415-2.587-14.787-5.281-22.152-8.007-8.31-3.065-16.628-6.105-25-9-9.027-3.121-17.99-6.413-26.95-9.72-9.056-3.342-18.132-6.613-27.288-9.675-5.547-1.89-5.547-1.89-7.762-4.105l3.632-1.23c20.268-6.871 40.532-13.748 60.722-20.844 21.632-7.601 43.355-14.928 65.084-22.247 24.122-8.126 48.215-16.322 72.215-24.804 1.781-.628 3.564-1.252 5.347-1.875l3.282-1.155c2.736-.85 4.873-1.012 7.718-.845a6441.244 6441.244 0 0 1 9.018 22.553c3.337 8.394 6.611 16.717 8.982 25.447l1.865.096c10.699.713 21.202 2.593 31.76 4.404l3.096.527c15.057 2.577 30.034 5.443 44.966 8.66l2.537.545c31.789 6.868 31.789 6.868 46.713 11.83 1.59.517 3.18 1.032 4.77 1.547l2.245.733c2.71.87 5.441 1.668 8.173 2.47 31.432 9.764 73.57 23.065 91.875 53.188l1.242 2.035c3.761 7.146 4.012 14.962 2.063 22.738-2.129 5.813-5.253 10.582-9.305 15.227l-1.86 2.145c-15.984 17.156-40.459 27.872-62.14 35.855l-2.837 1.05c-16.167 5.917-32.486 10.713-49.163 14.95l-5.747 1.487c-28.296 7.315-56.738 12.945-85.606 17.46-6.183.97-12.356 1.995-18.527 3.042-6.295 1.062-12.607 1.94-18.942 2.734-2.442.31-4.882.636-7.323.96-14.89 1.955-29.814 3.405-44.768 4.755-4.483.407-8.961.849-13.439 1.312-22.843 2.354-45.717 4.027-68.648 5.25l-3.082.165c-38.228 1.991-76.5 2.07-114.77 2.139-3.817.008-7.635.022-11.452.037-35.588.13-70.979-.965-106.5-3.145-3.243-.199-6.486-.394-9.73-.588l-6.272-.378-2.826-.17c-21.622-1.317-43.16-3.24-64.695-5.561-3.727-.401-7.455-.78-11.184-1.15-19.06-1.9-37.987-4.497-56.926-7.349l-3.388-.508c-14.46-2.177-28.831-4.646-43.175-7.492l-4.79-.936c-46.263-9.061-94.394-19.483-136.21-42.064l-1.821-.963c-16.004-8.503-33.17-19.761-39.992-37.287-2.33-7.9-2.291-15.196 1.125-22.75 20.931-37.373 75.546-51.75 113.592-62.519 8.97-2.511 17.973-4.622 27.096-6.481 2.106-.471 4.21-.95 6.313-1.438l3.093-.714c2.836-.67 5.669-1.35 8.5-2.04l2.698-.652c1.73-.419 3.457-.84 5.184-1.267 14.327-3.465 28.922-5.734 43.461-8.106 2.907-.476 5.814-.958 8.72-1.441l5.601-.916 2.605-.436c4.326-.698 8.424-1.153 12.825-.99l.354-2.102c.721-3.237 1.787-6.176 2.974-9.273l.7-1.836c.737-1.93 1.48-3.86 2.222-5.789l1.45-3.793c.955-2.501 1.915-5 2.876-7.5.96-2.5 1.916-5.002 2.863-7.508l1.358-3.574c.6-1.59.6-1.59 1.214-3.21C391 939 391 939 392 938Z" fill="#4E2999"/><path d="m332.063 520.75 2.557-.002c14.334.018 28.215.977 42.38 3.252l6.738.996c49.453 7.63 96.712 24.454 141.434 46.608a836.244 836.244 0 0 0 7.984 3.88C546.515 581.958 559.283 589.353 572 597l2.755 1.653C622.31 627.31 622.31 627.31 634 639c.09 2.466.115 4.9.094 7.367l-.011 2.315c-.049 7.053-.239 14.101-.436 21.152-.948 34.385-.764 68.782-.719 103.177.011 8.857.017 17.714.022 26.571.01 18.14.027 36.279.05 54.418-3.669-2.41-6.965-4.767-10.125-7.813-8.087-7.393-17.036-13.732-25.875-20.187l-2.266-1.655C568.087 804.979 539.41 788.758 510 774l-3.504-1.766C487.72 762.817 468.613 754.516 449 747l-2.13-.816c-24.262-9.27-48.892-17.085-73.87-24.184l-3.414-.971c-6.495-1.822-13.021-3.475-19.586-5.029l-3.802-.904C304.41 705.231 261.78 697.873 219 694c1.49-4.882 3.493-9.312 5.746-13.871l1.112-2.274c.783-1.602 1.569-3.203 2.356-4.804 1.652-3.361 3.297-6.726 4.942-10.09l2.458-5.027c3.51-7.175 6.966-14.375 10.399-21.587 2.463-5.171 4.945-10.332 7.448-15.484 5.647-11.632 11.242-23.271 16.487-35.093 3.147-7.066 6.569-13.975 10.081-20.865 1.606-3.15 3.197-6.308 4.784-9.467l.968-1.916a431.946 431.946 0 0 0 6.028-12.573l1.475-3.168a661.94 661.94 0 0 0 2.86-6.24l1.34-2.877 1.18-2.58c1.567-2.444 2.623-3.12 5.336-4.084 9.052-1.888 18.846-1.243 28.063-1.25ZM940.438 520.625l2.578-.005c20.85.005 20.85.005 26.984 2.38 2.383 2.496 2.383 2.496 4 6l1.093 2.176c1.306 2.61 2.546 5.244 3.782 7.886.977 2.067 1.955 4.134 2.934 6.2l1.566 3.314a2368.725 2368.725 0 0 0 7.673 15.96c1.492 3.084 2.982 6.168 4.472 9.253l.888 1.84c5.373 11.127 10.709 22.272 16.051 33.414a13252.628 13252.628 0 0 0 16.65 34.613l2.655 5.502a4655.527 4655.527 0 0 0 8.685 17.92c1.08 2.224 2.16 4.448 3.238 6.672l1.495 3.045 1.392 2.877 1.206 2.472c1.654 3.873 2.935 7.847 4.22 11.856l-3.535.396c-27.156 2.987-27.156 2.987-54.215 6.729l-2.867.442c-6.556 1.053-13.055 2.35-19.562 3.67a658.624 658.624 0 0 1-10.801 2.052c-68.118 12.542-134.962 34.686-197.081 65.267a1334.598 1334.598 0 0 1-8.544 4.151c-36.735 17.866-71.92 40.212-103.153 66.578C650 845 650 845 647 846c-1.338-34.293-1.94-68.6-2.274-102.916-.108-10.812-.26-21.62-.516-32.43a1515.97 1515.97 0 0 1-.415-28.557c-.027-5.014-.092-10.02-.257-15.03-.954-30.166-.954-30.166 4.69-38.264 5.288-5.185 11.218-8.525 17.952-11.5 4.146-1.916 7.77-4.452 11.508-7.053 8.493-5.49 17.187-10.66 25.888-15.811 2.308-1.37 4.61-2.753 6.908-4.138 8.672-5.202 17.472-9.932 26.567-14.346 1.898-.93 3.782-1.88 5.664-2.842 34.792-17.75 70.974-31.412 108.847-40.926l2.276-.573c15.414-3.862 30.877-6.868 46.662-8.802l2.134-.262c12.6-1.5 25.122-1.932 37.803-1.925Z" fill="#F4EEFA"/><path d="m424 499 2.809.647c34.67 8.139 67.39 21.496 99.191 37.353l2.965 1.477c19.07 9.561 37.52 20.332 55.035 32.523l1.878 1.302c14.229 9.88 28.239 19.988 41.352 31.323 2.684 2.413 2.684 2.413 5.61 4.188C635 610 635 610 635.523 613.75a119.141 119.141 0 0 1-.148 4.25l-.043 2.156c-.095 3.393-.3 6.598-1.332 9.844-2.697-1.274-5.027-2.664-7.387-4.484C596.56 602.689 564.39 582.558 531 565l-2.592-1.373C512.058 555.022 495.126 547.891 478 541l-2.753-1.11c-19.655-7.82-40.534-14.15-61.247-18.47-2.14-.45-4.275-.925-6.41-1.4-5.176-1.127-10.377-2.082-15.59-3.02l-2.963-.564c-18.12-3.352-36.02-3.836-54.412-3.874l-3.479-.018c-7.394-.026-14.76.134-22.146.456l-2.535.06c-4.9.16-9.03.649-13.465 2.94-3.3 4.18-5.071 8.566-6.976 13.504-1.89 4.608-4.263 8.977-6.563 13.39a4042.6 4042.6 0 0 0-2.985 5.85l-3.101 6.068-1.613 3.159c-6.494 12.713-13.008 25.414-19.599 38.078-5.073 9.755-10.088 19.54-15.1 29.326a11180.264 11180.264 0 0 1-23.155 44.939c-3.622 6.996-7.233 13.998-10.845 20.999A6692152.041 6692152.041 0 0 1 196 705l3.91-.094c7.88.011 15.695.816 23.528 1.594l2.58.255C286.144 712.808 345.612 725.058 403 744l3.814 1.248C456.246 761.473 504.623 782.749 549 810l2.546 1.557c27.268 16.745 53.768 35.32 77.099 57.298 2.358 2.255 2.358 2.255 5.355 4.145.403 1.91.403 1.91.445 4.272l.072 2.684.038 2.923.175 6.174c.076 3.231.144 6.462.203 9.694.38 18.997 3.436 33.8 11.755 51.003.963 2.036 1.925 4.073 2.886 6.11l1.269 2.639c1.143 2.47 2.17 4.965 3.157 7.501-18.422 5.763-33.635 2.814-50.465-5.965-13.538-7.59-25.145-18.175-36.535-28.597-5.526-5.011-11.385-9.558-17.29-14.109a316.353 316.353 0 0 1-4.546-3.618C519.671 893.386 491.01 877.635 462 863l-2.74-1.387C415.553 839.672 368.131 824.617 321 812l-3.165-.857c-24.846-6.714-49.932-12.107-75.21-16.893l-2.284-.433c-10.439-1.97-20.9-3.779-31.383-5.495-2.629-.432-5.256-.874-7.884-1.314-26.761-4.42-53.658-7.872-80.626-10.752l-2.197-.236c-1.95-.208-3.902-.414-5.852-.619A166.18 166.18 0 0 1 103 774c1.462-3.952 3.326-7.461 5.457-11.094l1.027-1.754c1.106-1.887 2.217-3.77 3.329-5.652l2.332-3.966c4.812-8.164 9.73-16.255 14.759-24.288 4.994-8.006 9.795-16.123 14.596-24.246 5.902-9.983 11.864-19.918 18.002-29.758 3.536-5.672 7.007-11.38 10.435-17.117 11.182-18.704 22.593-37.267 34.026-55.818 2.03-3.295 4.055-6.592 6.08-9.889 11.899-19.375 23.824-38.719 36.301-57.728 4.767-7.28 9.422-14.623 14.031-22.003l1.967-3.148c2.979-4.684 2.979-4.684 5.658-9.539 2.015-.654 2.015-.654 4.68-1.219l2.977-.634 3.218-.647 3.285-.67c9.576-1.894 19.114-3.092 28.84-3.83l3.06-.257c36.06-2.858 71.723.06 106.94 8.257Z" fill="#F4EDFA"/><path d="M52 795c12.355 3.37 12.355 3.37 18.352 5.531l4.023 1.439 2.093.754a1425.29 1425.29 0 0 0 36.47 12.588c12.841 4.236 25.615 8.648 38.374 13.125 13.257 4.652 26.535 9.22 39.875 13.625 13.507 4.46 26.94 9.106 40.355 13.834A1904.79 1904.79 0 0 0 267 868c12.715 4.2 25.37 8.55 38 13a2126.957 2126.957 0 0 0 40.004 13.661c12.609 4.168 25.153 8.505 37.683 12.902 12.574 4.41 25.16 8.763 37.813 12.937 13.584 4.48 27.088 9.175 40.585 13.91a2143.15 2143.15 0 0 0 37.103 12.653c13.506 4.46 26.939 9.105 40.354 13.833a1964.728 1964.728 0 0 0 39.82 13.536c8.2 2.702 16.346 5.52 24.462 8.463l5.487 1.974c3.51 1.264 7.01 2.551 10.507 3.852 1.606.58 3.212 1.158 4.819 1.736l2.164.828c7.002 2.474 13.407 1.685 20.312-.914l2.592-.947 2.607-.986a834.2 834.2 0 0 1 5.239-1.942l2.302-.87C661 985 661 985 665 985l1 2 3-8 2.136.014c11.058-.356 20.66-3.961 30.989-7.639l5.898-2.055c5.042-1.756 10.078-3.53 15.112-5.308 6.777-2.393 13.562-4.761 20.347-7.132 1.69-.59 3.38-1.182 5.07-1.775 18.848-6.606 37.773-12.982 56.698-19.364 17.78-5.995 35.55-12.013 53.25-18.241 19.196-6.755 38.474-13.259 57.756-19.76 17.716-5.975 35.42-11.97 53.057-18.178 19.789-6.965 39.669-13.658 59.55-20.358 19.114-6.442 38.212-12.919 57.24-19.617 19.054-6.701 38.198-13.134 57.339-19.584 20.203-6.807 40.374-13.696 60.462-20.839l2.471-.873c1.49-.526 2.978-1.056 4.465-1.591 2.866-1.01 5.095-1.7 8.16-1.7v26l-5.148 1.766c-2.41.827-4.818 1.655-7.227 2.484l-1.95.671a2418.17 2418.17 0 0 0-22.905 7.993l-2.062.733-2.074.737c-12.713 4.519-25.451 8.936-38.259 13.178a7046.49 7046.49 0 0 0-46.938 15.75l-3.658 1.241a5169.033 5169.033 0 0 0-49.234 16.976c-19.819 6.947-39.705 13.692-59.595 20.434a7335.752 7335.752 0 0 0-18.946 6.451l-2.398.82-4.776 1.635a10104.769 10104.769 0 0 1-39.318 13.365l-16.887 5.703-2.152.727c-17.976 6.073-35.93 12.2-53.828 18.5C822.822 956.78 803.908 963.13 785 969.5c-21.87 7.368-43.726 14.767-65.498 22.422l-4.81 1.691-2.354.827a2150.263 2150.263 0 0 1-18.998 6.54l-2.927.996c-4.646 1.58-9.293 3.154-13.943 4.724l-4.915 1.667-2.288.768c-3.4.96-3.4.96-6.267 2.865l3.637 1.25c9.009 3.115 17.968 6.32 26.863 9.75 8.29 3.191 16.63 6.186 25.023 9.094 6.403 2.22 12.784 4.5 19.164 6.781l3.177 1.134c7.665 2.741 15.325 5.498 22.984 8.257 11.548 4.159 23.1 8.305 34.655 12.445l10.145 3.636c10.497 3.763 20.995 7.525 31.493 11.286a97627.329 97627.329 0 0 1 67.075 24.062c2.157.775 4.313 1.55 6.47 2.323 10.816 3.882 21.62 7.772 32.314 11.982-3.616 6.196-8.656 10.88-13.75 15.875l-2.691 2.664A2230.995 2230.995 0 0 1 923 1139l-1.61-.538a5173.858 5173.858 0 0 0-12.37-4.11c-25.312-8.385-25.312-8.385-34.77-12.29-5.398-2.207-10.931-3.992-16.48-5.78-3.912-1.275-7.747-2.648-11.56-4.2-5.787-2.352-11.674-4.375-17.585-6.395-2.32-.797-4.638-1.596-6.957-2.394l-3.44-1.182c-13.013-4.478-25.976-9.086-38.918-13.764a1720.411 1720.411 0 0 0-20.247-7.16c-5.527-1.917-10.978-3.919-16.383-6.16-4.577-1.754-9.246-3.243-13.911-4.746-3.912-1.274-7.747-2.647-11.558-4.199-5.788-2.352-11.676-4.375-17.586-6.395l-6.965-2.398-3.44-1.183a3799.77 3799.77 0 0 1-13.158-4.543l-2.343-.813a554.676 554.676 0 0 1-14.711-5.406l-3.672-1.393a880.81 880.81 0 0 1-7.138-2.752c-10.954-4.162-17.103-3.241-27.885.863-2.272.842-4.544 1.684-6.817 2.524l-3.38 1.26c-4.061 1.504-8.147 2.93-12.241 4.341-11.79 4.095-23.525 8.344-35.266 12.575a2919.27 2919.27 0 0 1-26.931 9.554 5949.528 5949.528 0 0 0-29.928 10.559l-2.981 1.058c-12.06 4.283-24.086 8.63-36.045 13.188-6.872 2.603-13.81 4.941-20.796 7.217-7.627 2.507-15.131 5.305-22.617 8.203-6.34 2.429-12.74 4.617-19.186 6.74a713.672 713.672 0 0 0-22.188 7.719l-2.737.999c-3.68 1.344-7.36 2.689-11.032 4.052-2.74 1.015-5.484 2.015-8.23 3.012-.828.31-1.655.622-2.507.943-7.38 2.653-7.38 2.653-11.431.994-1.957-1.471-1.957-1.471-3.813-3.352l-2.07-2.082-2.117-2.191-2.117-2.121c-4.1-4.169-7.622-8.401-10.883-13.254a8939.19 8939.19 0 0 1 10.938-4.125l3.037-1.148a827.682 827.682 0 0 1 17.634-6.41c7.48-2.624 14.932-5.318 22.38-8.032l3.512-1.28c4.809-1.752 9.617-3.507 14.426-5.262 12.255-4.472 24.513-8.928 36.836-13.213 9.776-3.404 19.505-6.939 29.237-10.467l6.116-2.215a17758.26 17758.26 0 0 0 33.984-12.345c4.628-1.685 9.256-3.372 13.882-5.061a1974.7 1974.7 0 0 1 27.242-9.716c9.67-3.374 19.298-6.863 28.926-10.352 3.138-1.138 6.277-2.274 9.416-3.41l6.075-2.198 2.8-1.014c5.199-1.885 10.385-3.8 15.559-5.752-2.885-1.923-5.217-2.881-8.477-3.996l-3.417-1.175-3.731-1.266-3.919-1.341c-10.069-3.44-20.164-6.801-30.262-10.155a4379.344 4379.344 0 0 1-34.506-11.63l-2.538-.866c-16.426-5.613-32.826-11.306-49.226-16.997-13.925-4.83-27.863-9.605-41.858-14.229-9.477-3.133-18.911-6.382-28.342-9.652a2063.99 2063.99 0 0 0-28.897-9.738c-8.672-2.868-8.672-2.868-12.651-4.396-6.31-2.413-12.762-4.443-19.176-6.559-14.761-4.87-14.761-4.87-20.809-7.195-5.676-2.085-11.449-3.91-17.191-5.805-14.761-4.87-14.761-4.87-20.809-7.195-5.676-2.085-11.449-3.91-17.191-5.805-14.761-4.87-14.761-4.87-20.809-7.195-5.676-2.085-11.449-3.91-17.191-5.805-14.985-4.944-14.985-4.944-20.87-7.204-5.418-2.025-10.909-3.856-16.38-5.734l-2.07-.711c-13.15-4.52-26.334-8.927-39.534-13.29-6.814-2.256-13.598-4.564-20.333-7.049-5.959-2.144-11.987-4.09-18-6.074-14.563-4.805-14.563-4.805-18.786-6.43-3.704-1.424-7.463-2.673-11.23-3.918l-1.97-.651c-2.715-.896-5.43-1.79-8.147-2.68-2.004-.658-4.006-1.32-6.008-1.982l-3.59-1.18C56 823 56 823 52 821v-26Z" fill="#984DF6"/><path d="M911.944 489.97c25.32-.38 49.79.057 74.63 5.563 2.438.516 2.438.516 5.001.668 4.015.417 6.529.892 9.425 3.822 1.963 2.748 3.683 5.555 5.375 8.477 1.296 2.113 2.593 4.225 3.89 6.336l1.913 3.179c2.52 4.127 5.223 8.116 7.947 12.11 5.993 8.918 11.624 18.05 17.238 27.21 2.143 3.49 4.303 6.967 6.463 10.445a3283.83 3283.83 0 0 1 16.943 27.634A2369.06 2369.06 0 0 0 1072.5 614.5c6.306 10.16 12.527 20.372 18.734 30.593 2.919 4.804 5.843 9.605 8.766 14.407a249850.795 249850.795 0 0 1 5.25 8.625l21 34.501a310236.819 310236.819 0 0 0 12.355 20.3c2.92 4.8 5.843 9.598 8.765 14.396a10965.802 10965.802 0 0 0 7.442 12.24l1.333 2.19a497.699 497.699 0 0 0 10.216 16.012C1169 771.785 1169 771.785 1169 774c-3.24 1.08-6.046 1.354-9.45 1.648l-3.974.354-2.108.184c-13.695 1.2-27.333 2.667-40.962 4.482-2.32.307-4.64.603-6.963.894-6.007.767-11.904 1.675-17.824 2.938-4.799.883-9.65 1.385-14.496 1.937-4.11.51-8.164 1.255-12.234 2.014-3.113.572-6.23 1.104-9.352 1.627-26.678 4.488-53.432 9.273-79.57 16.307a837.985 837.985 0 0 1-14.028 3.623C902.122 824.018 848.585 843.183 797 869l-2.881 1.429c-35.641 17.74-67.958 41.42-97.244 68.258C674.397 959 674.397 959 666 959a205.189 205.189 0 0 1-2.063-3.75l-1.16-2.11c-.964-2.655-.963-3.575.223-6.14 2.187-2.191 2.187-2.191 5-4.563 3.851-3.343 7.208-6.724 10.375-10.75 7.485-9.473 16.33-17.994 25.625-25.687l1.586-1.34c10.643-8.988 21.748-17.053 33.414-24.66l2.44-1.593c51.4-33.278 110.103-56.118 169.044-71.91a635.83 635.83 0 0 0 13.11-3.696c33.987-9.911 68.744-17.7 103.69-23.354a457.811 457.811 0 0 0 16.131-2.894c23.026-4.59 46.33-7.577 69.679-9.932 4.577-.466 9.11-1.045 13.656-1.746 7.383-1.133 14.797-1.507 22.25-1.875l-1.006-1.37c-16.48-22.556-16.48-22.556-18.994-35.63a1391.93 1391.93 0 0 0-33.625 4.495c-2.608.377-5.216.748-7.824 1.118-10.438 1.504-20.758 3.35-31.087 5.477-5.405 1.113-10.834 2.062-16.277 2.972-16.446 2.808-32.667 6.303-48.875 10.25-9.046 2.197-18.101 4.343-27.187 6.375-7.692 1.73-15.328 3.583-22.924 5.7-2.622.73-5.245 1.45-7.869 2.172C878.37 779.736 824.487 798.365 773 823l-3.22 1.534C741.696 837.985 714.583 853.823 690 873l-2.602 2.016c-5.193 4.084-10.147 8.378-15.027 12.832a302.434 302.434 0 0 1-6.434 5.652c-4.534 3.945-8.727 8.215-12.937 12.5-.999 1.001-1.998 2.002-3 3-1.718-10.6-2.414-21.272-2.75-32l-.23-3.757c-.094-5.084-.15-8.74 2.978-12.898 2.554-2.334 5.175-4.353 8.002-6.345a743.877 743.877 0 0 0 4.062-3.266c1.309-1 2.622-1.994 3.938-2.984l2.19-1.656c2.265-1.706 4.536-3.401 6.81-5.094l2.173-1.626C695.61 825.625 715.196 813.659 735 802l1.967-1.163c7.72-4.552 15.578-8.713 23.619-12.657a523.575 523.575 0 0 0 9.266-4.672c31.253-16.039 64.22-29.189 97.726-39.742 1.803-.57 3.604-1.149 5.403-1.731 27.558-8.923 55.429-16.007 83.769-21.973l2.742-.58c9.775-2.058 19.484-3.87 29.402-5.09 3.661-.462 7.235-1.117 10.856-1.83 8.964-1.683 18.007-2.614 27.073-3.56l3.38-.354c.997-.1 1.994-.202 3.02-.307 2.633-.323 5.179-.82 7.777-1.341 1.635-.19 3.274-.357 4.914-.5l2.809-.25 2.902-.25 2.832-.25A3863.309 3863.309 0 0 0 1074 704a24746.737 24746.737 0 0 0-35.944-70.013c-3.5-6.786-6.997-13.574-10.494-20.362l-1.058-2.055a41661.912 41661.912 0 0 1-18.75-36.435l-1.12-2.181-2.243-4.36c-2.3-4.47-4.597-8.941-6.894-13.412-1.529-2.976-3.059-5.95-4.589-8.925l-2.145-4.177-1.019-1.984-.997-1.942a991.758 991.758 0 0 0-2.896-5.56 188.413 188.413 0 0 1-3.618-7.344c-2.668-5.969-2.668-5.969-7.119-10.529-2.243-.78-2.243-.78-5.927-.971l-3.957-.453-2.077-.144c-2.249-.16-4.473-.422-6.712-.684-6.883-.686-13.779-.712-20.691-.719l-2.169-.003c-15.32.014-30.388 1.234-45.581 3.253l-2.953.39c-55.267 7.67-110.805 28.707-158.852 56.747a240.149 240.149 0 0 1-8.445 4.675c-22.999 12.53-46.323 26.873-66.594 43.524C649 622 649 622 647 622c-2.185-18.146-2.185-18.146 1.084-23.912 3.05-3.356 6.88-5.565 10.782-7.809 2.981-1.787 5.711-3.86 8.49-5.943C690.881 566.764 716.07 551.713 742 538l2.598-1.386c50.675-26.866 109.759-45.756 167.346-46.644Z" fill="#F4EDFA"/><path d="M240 521c5.06.747 9.265 2.122 14 4-1.572 4.542-4.044 8.34-6.688 12.313-11.088 16.918-21.643 34.17-32.115 51.473A2041.472 2041.472 0 0 1 202.5 609.5c-7.192 11.575-14.25 23.232-21.31 34.887-3.207 5.292-6.42 10.58-9.631 15.87l-3.185 5.246c-3.177 5.233-6.354 10.466-9.536 15.696a6664.59 6664.59 0 0 0-23.962 39.678 4529.675 4529.675 0 0 1-19.132 31.639A1104.046 1104.046 0 0 0 103 774l2.275.162c8.988.662 17.952 1.506 26.912 2.463l2.327.248c15.012 1.62 29.97 3.61 44.923 5.69l3.248.447c10.534 1.457 20.977 2.968 31.35 5.331 4.604 1.023 9.246 1.74 13.903 2.471C263.022 796.548 297.839 804.122 332 814l2.929.836C391.166 830.941 447.717 850.566 498 881l4.266 2.54c27.17 16.28 52.53 35.52 75.734 57.085 16.766 15.194 37.046 28.065 60.25 27.613 5.336-.339 10.52-1.147 15.75-2.238 1.674 2.787 3.338 5.58 5 8.375l1.445 2.406 1.367 2.305 1.27 2.126C664 983 664 983 664 985a2269.84 2269.84 0 0 1-12.625 4.5l-3.605 1.3-3.497 1.231-3.205 1.143c-6.027 1.623-10.276.658-16.072-1.447l-2.02-.725a802.322 802.322 0 0 1-4.298-1.558c-2.28-.834-4.565-1.656-6.85-2.475-3.125-1.12-6.25-2.244-9.372-3.37-6.26-2.252-12.542-4.434-18.831-6.599l-3.537-1.22c-10.13-3.478-20.296-6.845-30.463-10.213-13.745-4.557-27.418-9.308-41.083-14.101-11.65-4.086-23.318-8.099-35.042-11.966-12.654-4.174-25.24-8.527-37.813-12.938-13.194-4.628-26.409-9.178-39.687-13.562-14.209-4.692-28.342-9.582-42.461-14.536a2094.867 2094.867 0 0 0-37-12.61c-12.997-4.292-25.913-8.803-38.829-13.333-11.706-4.103-23.43-8.135-35.21-12.021-12.654-4.174-25.24-8.527-37.813-12.938-13.194-4.628-26.409-9.178-39.687-13.562-14.2-4.689-28.325-9.576-42.435-14.527-12.198-4.278-24.419-8.472-36.69-12.535l-4.065-1.348-1.955-.648c-6.442-2.136-12.88-4.279-19.293-6.505l-2.025-.69c-2.75-.966-4.444-1.654-6.537-3.747l1.047-1.487c8.865-12.598 17.595-25.281 26.256-38.02 6.75-9.918 13.587-19.775 20.447-29.618 6.657-9.553 13.237-19.157 19.785-28.785 4.361-6.412 8.756-12.8 13.154-19.187 2.273-3.3 4.542-6.601 6.811-9.903l2.75-4 1.375-2 15.125-22 1.374-1.998c.92-1.34 1.841-2.678 2.762-4.017 2.231-3.245 4.461-6.49 6.688-9.739a3769.414 3769.414 0 0 1 16.176-23.371c6.657-9.553 13.237-19.157 19.785-28.785 4.358-6.408 8.75-12.792 13.146-19.173a7076.85 7076.85 0 0 0 4.124-5.999A6802.603 6802.603 0 0 1 240 521Z" fill="#4E2999"/><path d="M1031 521c1.586 1.49 1.586 1.49 2.945 3.594l1.557 2.348 1.623 2.558 3.469 5.27 1.738 2.678c2.368 3.624 4.826 7.182 7.293 10.74l2.695 3.917 1.337 1.943c2.282 3.317 4.562 6.635 6.843 9.952a468338.342 468338.342 0 0 0 12.386 18.015c2.231 3.245 4.461 6.49 6.688 9.739a3769.414 3769.414 0 0 0 16.176 23.371c6.657 9.553 13.237 19.157 19.785 28.785 4.361 6.412 8.756 12.8 13.154 19.187 2.273 3.3 4.542 6.601 6.811 9.903a234266.296 234266.296 0 0 0 12.386 18.015c2.231 3.245 4.461 6.49 6.688 9.739a3769.414 3769.414 0 0 0 16.176 23.371c6.657 9.553 13.237 19.157 19.785 28.785a3004.388 3004.388 0 0 0 10.527 15.372c2.314 3.363 4.632 6.723 6.954 10.081l1.512 2.192c.952 1.378 1.904 2.756 2.858 4.132l1.302 1.887 1.136 1.644c1.464 2.219 2.82 4.495 4.176 6.782l-3.357 1.139c-19.405 6.587-38.802 13.193-58.138 19.982-20.531 7.207-41.137 14.186-61.756 21.138-17.718 5.975-35.424 11.97-53.062 18.178-19.789 6.966-39.669 13.66-59.55 20.359-19.114 6.442-38.212 12.919-57.24 19.617-17.58 6.183-35.238 12.133-52.897 18.087-18.53 6.248-37.053 12.509-55.5 19-19.921 7.01-39.931 13.754-59.944 20.497-20.115 6.778-40.198 13.634-60.197 20.751l-2.454.868c-1.47.52-2.939 1.042-4.405 1.57-3.815 1.346-7.49 2.275-11.5 2.814-4.716-6.388-8.67-12.787-12-20l2.273-1.25c7.153-4.036 13.484-8.43 19.727-13.75l1.634-1.38c5.876-4.968 11.697-9.98 17.366-15.183 6.068-5.488 12.495-10.484 19-15.437l2.178-1.662c11.55-8.775 23.398-16.852 35.822-24.338l2.31-1.393c12.941-7.749 26.232-14.803 39.69-21.607l2.896-1.472c76.053-38.412 165.515-63.178 252.073-73.958 3.711-.475 7.315-1.26 10.96-2.102 8.63-1.95 17.497-2.772 26.282-3.72 8.841-.958 17.655-2.097 26.441-3.47 14.402-2.216 28.81-3.356 43.348-4.278a1418462.345 1418462.345 0 0 0-13.688-22.395 17408.029 17408.029 0 0 1-20.514-33.65L1126 703.5l-3.5-5.75-1.75-2.875-7-11.5-3.504-5.757c-2.894-4.753-5.786-9.507-8.676-14.263-8.803-14.485-17.676-28.925-26.57-43.355a43726.034 43726.034 0 0 1-10.138-16.456c-4.333-7.041-8.636-14.1-12.925-21.169a2144.316 2144.316 0 0 0-14.562-23.625l-1.877-3.007c-3.004-4.801-6.032-9.584-9.111-14.337l-1.703-2.643a589.43 589.43 0 0 0-3.18-4.877l-1.406-2.183-1.234-1.886C1018 528 1018 528 1018 524c8.524-3.467 8.524-3.467 13-3Z" fill="#4E2998"/><path d="M206.063 204.688c12.086 10.138 19.9 22.385 26.312 36.625l1.012 2.244c2.066 4.75 3.482 9.388 4.613 14.443l1.453-1.177C251.56 247.153 265.333 242.35 280 238l2.09-.627c10.824-2.998 23.927-3.151 34.078 1.889C342.556 255.459 359.374 285.163 369 314v2H0c0-48 0-48 7-56 2.406-2.023 2.406-2.023 4.5-3.375l2.094-1.398c6.258-3.19 12.343-3.614 19.218-3.602l2.775.003c9.145.155 17.64 1.906 26.413 4.372l3.34.934A198.43 198.43 0 0 1 72 259l.277-2.547c.828-3.955 2.366-7.19 4.285-10.703l1.076-1.99C80.845 237.988 84.671 232.98 89 228l1.344-1.777c14.725-19.08 40.945-29.867 63.937-33.782 18.886-2.241 36.341.459 51.781 12.246Z" fill="#853DD4"/><path d="m229 565 1 2c-1.089 2.312-1.089 2.312-2.797 5.215l-1.889 3.239-2.064 3.484a3065.64 3065.64 0 0 0-2.091 3.575c-1.399 2.392-2.8 4.781-4.207 7.169a2089.495 2089.495 0 0 0-7.577 13.005l-1.314 2.267c-4.642 8.021-9.195 16.093-13.745 24.167a2676.28 2676.28 0 0 1-6.539 11.54c-6.962 12.229-13.711 24.559-20.355 36.964a2254.321 2254.321 0 0 1-9.734 17.938 2024.962 2024.962 0 0 0-10.875 20.125l-1.136 2.125c-1.433 2.706-2.707 5.276-3.677 8.187l3.908-.076c4.942.004 9.684.558 14.565 1.29l2.725.397c2.956.433 5.91.879 8.864 1.327l3.116.468c78.036 11.782 155.498 29.586 230.146 55.326 3.109 1.072 6.221 2.134 9.336 3.19 25.876 8.84 51.723 18.446 76.078 30.933a304.9 304.9 0 0 0 9.555 4.633C534.354 839.39 566.739 859.101 595 884l2.418 2.082C629.824 914.471 629.824 914.471 634 927h2l1-4 .488 2.219c2.948 11.733 8.145 22.352 13.339 33.232 1.145 2.488 2.18 4.998 3.173 7.549-18.422 5.763-33.635 2.814-50.465-5.965-13.538-7.59-25.145-18.175-36.535-28.597-5.526-5.011-11.385-9.558-17.29-14.109a316.353 316.353 0 0 1-4.546-3.618C519.671 893.386 491.01 877.635 462 863l-2.74-1.387C415.553 839.672 368.131 824.617 321 812l-3.165-.857c-24.846-6.714-49.932-12.107-75.21-16.893l-2.284-.433c-10.439-1.97-20.9-3.779-31.383-5.495-2.629-.432-5.256-.874-7.884-1.314-26.761-4.42-53.658-7.872-80.626-10.752l-2.197-.236c-1.95-.208-3.902-.414-5.852-.619A166.18 166.18 0 0 1 103 774c1.462-3.952 3.326-7.461 5.457-11.094l1.027-1.754c1.106-1.887 2.217-3.77 3.329-5.652l2.332-3.966c4.812-8.164 9.73-16.255 14.759-24.288 4.994-8.006 9.795-16.123 14.596-24.246 5.902-9.983 11.864-19.918 18.002-29.758 3.536-5.672 7.007-11.38 10.435-17.117 11.166-18.677 22.561-37.214 33.978-55.739 2.175-3.532 4.345-7.066 6.515-10.6l3.266-5.32c1.027-1.671 2.052-3.344 3.077-5.016 2.995-4.875 6-9.724 9.227-14.45Z" fill="#DFCAF2"/><path d="M1212.59 306.035c2.564 2.24 4.998 4.561 7.41 6.965l2.309 2.238c10.884 11.224 16.635 25.224 21.691 39.762a333.54 333.54 0 0 0 2 5l1.68-1.531 2.195-1.969 2.18-1.969C1254 353 1254 353 1256 353v65H951c3.37-14.607 5.668-23.278 18.023-31.316 8.254-4.404 18.091-3.781 26.852-1.184 1.382.48 2.76.972 4.125 1.5l.063-3.313c1.198-9.402 8.811-17.89 15.937-23.687 12.248-8.105 27.89-7.804 42.047-5.21 4.047.881 7.995 1.991 11.953 3.21l3.04.934c2 .647 3.984 1.347 5.96 2.066l.277-2.547c.828-3.955 2.365-7.19 4.285-10.703l1.078-1.992c3.209-5.772 7.018-10.786 11.36-15.758l1.602-2.035c24.916-30.87 81.83-47.985 114.988-21.93Z" fill="#853DD4"/><path d="M879 938c14.412 35.846 14.412 35.846 18.784 48.905 1.33 3.891 2.878 7.603 4.61 11.333 2.722 5.894 4.964 11.91 7.168 18.012a1608.442 1608.442 0 0 0 11.688 30.938c6.29 16.17 6.29 16.17 9.125 23.812 1.8 4.845 3.68 9.65 5.625 14.438a409.946 409.946 0 0 1 6.313 16.75l.771 2.179c1.114 3.188 2.13 6.35 2.916 9.633a353.873 353.873 0 0 1-19.543-6.309l-2.73-.964a6238.326 6238.326 0 0 1-8.914-3.165l-3.15-1.117c-19.352-6.866-38.654-13.868-57.946-20.9a12944.025 12944.025 0 0 0-47.904-17.358l-3.083-1.11c-10.058-3.626-20.123-7.227-30.218-10.745A1361.927 1361.927 0 0 1 748 1043.5c-8.31-3.065-16.628-6.105-25-9-9.027-3.121-17.99-6.413-26.95-9.72-9.056-3.342-18.132-6.613-27.288-9.675-5.547-1.89-5.547-1.89-7.762-4.105l3.632-1.23c20.268-6.871 40.532-13.748 60.722-20.844 21.632-7.601 43.355-14.928 65.084-22.247 24.122-8.126 48.215-16.322 72.215-24.804 1.781-.628 3.564-1.252 5.347-1.875l3.282-1.155c2.736-.85 4.873-1.012 7.718-.845ZM392 938c5.613.61 10.58 2.033 15.902 3.887l2.6.889a2712.6 2712.6 0 0 1 8.435 2.912l5.934 2.038c13.726 4.72 27.424 9.52 41.116 14.336a2042.044 2042.044 0 0 0 35.138 12c28.338 9.39 56.55 19.138 84.727 29.002a741262138.868 741262138.868 0 0 0 7.542 2.641A944.352 944.352 0 0 0 609 1011c-2.195 2.195-3.589 2.725-6.484 3.752l-2.827 1.014-3.084 1.086-3.203 1.144a4368.986 4368.986 0 0 1-10.215 3.629c-4.424 1.572-8.847 3.148-13.269 4.727l-3.322 1.184a914.347 914.347 0 0 0-20.483 7.612c-9.088 3.499-18.247 6.748-27.45 9.929-7.91 2.743-15.798 5.542-23.69 8.33-2.069.73-4.137 1.459-6.206 2.186-10.795 3.798-21.545 7.658-32.19 11.862-7.877 3.092-15.868 5.843-23.866 8.606-7.926 2.746-15.83 5.552-23.739 8.346-2.068.73-4.136 1.459-6.205 2.186-11.728 4.126-23.388 8.364-34.956 12.92-4.646 1.825-9.338 3.5-14.061 5.112a7701.47 7701.47 0 0 0-5.016 1.73l-2.416.834a406.337 406.337 0 0 0-6.552 2.362l-1.945.714c-1.692.625-3.381 1.256-5.071 1.887-2.75.848-2.75.848-6.75.848.599-4.641 1.878-8.504 3.688-12.813a313.381 313.381 0 0 0 6.437-17c1.812-5.216 3.713-10.36 5.813-15.468 1.715-4.391 3.245-8.848 4.78-13.305 1.616-4.652 3.383-9.223 5.228-13.788 1.864-4.646 3.64-9.326 5.429-14.001 2.983-7.777 5.98-15.548 9.004-23.309l.88-2.255c1.191-3.06 2.384-6.118 3.577-9.177 3.154-8.092 6.294-16.189 9.363-24.314l.76-2.01c1.168-3.095 2.332-6.19 3.49-9.288 2.326-6.187 4.771-12.274 7.551-18.272Z" fill="#3B1D77"/><path d="M943.313 70.875A213.638 213.638 0 0 1 948 75l2.297 2.05c10.31 9.725 16.854 21.52 22.85 34.164 1.248 2.614 2.55 5.2 3.853 7.786l2.719-1.723c6.74-4.198 13.493-8.042 20.781-11.215l1.955-.853c10.793-4.564 23.351-6.655 34.83-3.229 12.093 5.928 19.275 16.618 25.152 28.332l1 1.992c2.063 4.273 3.214 7.974 4.563 12.696H740c1.328-7.965 4.492-14.222 10.625-19.625 5.008-3.445 10.53-3.085 16.375-2.375l2 1 .688-2.063c3.745-8.382 9.446-13.189 17.73-17.07 12.35-4.148 25.464 1.325 37.22 5.067 3.557 1.128 7.122 2.223 10.69 3.312A3899.17 3899.17 0 0 1 854 119l-.487-1.801c-3.395-14.559 1.093-31.713 8.3-44.386 7.203-9.262 15.283-14.818 27.09-16.528 20.03-1.844 38.212 2.061 54.41 14.59Z" fill="#9748E3"/><path d="M1145 785c-2.405 1.603-4.294 2.616-6.93 3.664l-2.376.95-2.569 1.011-2.688 1.066c-9.776 3.865-19.605 7.59-29.437 11.309-3.626 1.373-7.25 2.748-10.875 4.125l-2.663 1.011a758.356 758.356 0 0 0-15.212 5.989c-5.869 2.372-11.794 4.489-17.774 6.555-5.796 2.026-11.444 4.333-17.1 6.714-5.597 2.336-11.267 4.365-17.001 6.336-5.038 1.75-9.96 3.701-14.875 5.77a268.418 268.418 0 0 1-16.813 6.438c-7.08 2.439-14.024 5.151-20.966 7.96-9.519 3.846-19.119 7.47-28.721 11.102-3.626 1.373-7.25 2.748-10.875 4.125l-2.663 1.011a758.356 758.356 0 0 0-15.212 5.989c-5.869 2.372-11.794 4.489-17.774 6.555-5.796 2.026-11.444 4.333-17.1 6.714-5.597 2.336-11.267 4.365-17.001 6.336-5.038 1.75-9.96 3.701-14.875 5.77-6.303 2.653-12.659 5.008-19.125 7.23-5.038 1.75-9.96 3.701-14.875 5.77a268.418 268.418 0 0 1-16.813 6.438c-7.08 2.439-14.024 5.151-20.966 7.96-9.519 3.846-19.119 7.47-28.721 11.102-3.626 1.373-7.25 2.748-10.875 4.125l-2.663 1.011a758.356 758.356 0 0 0-15.212 5.989c-5.997 2.426-12.057 4.581-18.172 6.685-5.1 1.778-9.95 3.901-14.828 6.221-2.714 1.169-5.308 1.73-8.25 1.969 2.807-3.01 5.588-5.1 9.125-7.188 5.915-3.678 10.813-8.058 15.875-12.812a562.203 562.203 0 0 1 5.64-4.945 822.622 822.622 0 0 0 5.594-4.922c9.259-8.17 18.85-15.778 28.766-23.133.58-.434 1.16-.868 1.759-1.314 62.36-46.43 138.833-75.758 213.99-93.863 3.354-.85 6.663-1.804 9.981-2.784 8.278-2.397 16.657-4.192 25.082-5.976l4.94-1.056c13.06-2.786 26.135-5.481 39.248-8.007l3.317-.644c12.638-2.444 25.255-4.686 38.024-6.33a318.098 318.098 0 0 0 16.597-2.588 349.95 349.95 0 0 1 19.316-2.965c2.576-.325 5.142-.669 7.71-1.04 9.081-1.275 17.863-1.67 27.036-1.433ZM123 784c13.285.552 26.34 2.222 39.5 4.063l3.334.461c59.116 8.208 117.94 18.923 175.22 35.902 1.991.587 3.985 1.167 5.98 1.744 77.053 22.328 152.688 55.893 217.708 114.284 7.414 7.007 15.356 13.151 23.563 19.202 1.697 1.346 3.196 2.784 4.695 4.344-3.922-.648-7.276-1.84-10.938-3.375-7.186-2.957-14.47-5.63-21.773-8.282-9.946-3.613-19.85-7.289-29.652-11.28-8.07-3.273-16.218-6.338-24.367-9.411-6.868-2.59-13.72-5.2-20.52-7.965-5.804-2.355-11.67-4.476-17.593-6.509-5.46-1.883-10.808-4.001-16.157-6.178-10.193-4.139-20.371-8.202-30.776-11.78-5.708-1.986-11.265-4.264-16.834-6.608-5.705-2.38-11.481-4.487-17.331-6.483-4.518-1.548-8.947-3.261-13.374-5.051-4.873-1.956-9.782-3.823-14.685-5.703a279178.578 279178.578 0 0 1-10.47-4.02c-3.424-1.314-6.846-2.631-10.268-3.949a7032.986 7032.986 0 0 0-33.055-12.644 716.804 716.804 0 0 1-14.957-5.887c-5.973-2.413-12-4.606-18.09-6.696-5.461-1.884-10.81-4.002-16.16-6.179-10.193-4.139-20.371-8.202-30.776-11.78-5.708-1.986-11.265-4.264-16.834-6.608-5.705-2.38-11.481-4.487-17.331-6.483-4.518-1.548-8.947-3.261-13.374-5.051-4.873-1.956-9.782-3.823-14.685-5.703l-6.836-2.625-3.542-1.36c-6.083-2.335-12.165-4.675-18.247-7.015l-6.602-2.54L123 785v-1Z" fill="#3B1E77"/><path d="m334.625 511.563 3.561.008c18.3.064 35.796 1.1 53.814 4.429 2.114.346 4.229.688 6.344 1.027C457.23 526.93 514.219 552.225 565 583l2.72 1.636c19.805 11.931 38.83 24.965 57.277 38.9 1.33.972 2.69 1.907 4.074 2.802 4.774 3.106 4.774 3.106 5.613 6.119l-.246 2.356-.192 2.394L634 639a221.384 221.384 0 0 1-17.75-12c-44.28-32.937-96.488-61.848-149.035-79.253a402.682 402.682 0 0 1-7.215-2.532c-27.804-9.81-56.637-16.863-85.853-20.79-2.655-.359-5.3-.753-7.948-1.163-11.125-1.584-22.36-1.467-33.574-1.512-.823-.005-1.645-.01-2.492-.017-4.682-.023-9.352.029-14.031.2a217.08 217.08 0 0 1-5.918.086c-3.481.211-6.01.531-9.184 1.981-3.266 3.81-4.973 7.992-6.813 12.625-.54 1.25-1.085 2.5-1.636 3.746a485.035 485.035 0 0 0-3.158 7.363c-1.66 3.89-3.505 7.642-5.455 11.391-4.36 8.61-8.495 17.33-12.66 26.035a5628.371 5628.371 0 0 1-9.446 19.614 6838.684 6838.684 0 0 0-14.646 30.48 5564.322 5564.322 0 0 1-11.249 23.371A5295.649 5295.649 0 0 0 219 694l3.334.109c13.15.514 26.03 2.1 39.041 4.016l3.226.469c19.92 2.9 39.693 6.306 59.399 10.406l2.135.439c63.303 13.016 124.95 34.755 182.94 63.132 2.697 1.318 5.4 2.62 8.105 3.921C530.528 782.97 543.288 790.36 556 798l2.788 1.67A496.287 496.287 0 0 1 627 849l1.68 1.094c2.422 1.659 4.129 3.063 4.792 5.987.118 2.438.053 4.795-.097 7.231l-.082 2.534c-.07 2.052-.178 4.103-.293 6.154-4.026-1.628-6.8-4.477-9.875-7.438C616.41 858.246 609.359 852.543 602 847l-2.229-1.681c-10.368-7.79-20.87-15.296-31.771-22.319l-2.153-1.396c-18.728-12.119-38.078-22.964-57.936-33.113a1471.96 1471.96 0 0 1-8.54-4.42C482.641 775.445 465.413 768.113 448 761l-2.938-1.202c-28.578-11.568-58.262-20.403-88.041-28.263-1.913-.506-3.824-1.018-5.736-1.53C300.475 716.453 248.28 709.693 196 705c1.349-4.379 3.06-8.303 5.176-12.363l.96-1.855c.692-1.332 1.384-2.663 2.079-3.993 1.517-2.905 3.024-5.815 4.532-8.724.81-1.564 1.622-3.127 2.433-4.69 4.401-8.482 8.752-16.99 13.102-25.498a10421.504 10421.504 0 0 1 28.438-55.191L258 582.5l1.79-3.455a4685.276 4685.276 0 0 0 12.128-23.63l1.564-3.065c2.586-5.068 5.17-10.137 7.75-15.207l2.873-5.635 1.318-2.595c.81-1.586 1.628-3.17 2.456-4.747.724-1.399 1.42-2.813 2.08-4.243 1.61-3.282 2.648-4.75 6.03-6.247 12.858-2.059 25.633-2.183 38.636-2.114Z" fill="#8841D5"/><path d="M978 516c1.222 1.688 1.222 1.688 2.277 3.785l1.273 2.483 1.388 2.794 1.522 2.99c1.17 2.3 2.337 4.603 3.498 6.908 2.304 4.567 4.637 9.118 6.972 13.669l1.317 2.567 2.694 5.254c1.382 2.696 2.763 5.393 4.142 8.09a6224.888 6224.888 0 0 0 15.48 30.085A7973.26 7973.26 0 0 1 1036 628.5a9556.247 9556.247 0 0 0 17.875 34.75l1.791 3.462a7537.19 7537.19 0 0 0 8.35 16.082c1.325 2.543 2.647 5.086 3.97 7.629.932 1.79 1.866 3.578 2.8 5.367l1.679 3.226 1.488 2.852C1075 704 1075 704 1075 705a5232.791 5232.791 0 0 0-13.812 1.172c-1.56.133-3.12.265-4.68.395-8.539.714-16.98 1.57-25.44 2.955-5.272.821-10.577 1.346-15.88 1.915-8.55.952-16.935 2.113-25.368 3.82-3.498.68-6.989 1.243-10.513 1.765-11.9 1.77-23.582 4.307-35.307 6.978l-3.547.798c-22.9 5.158-45.52 11.05-67.835 18.348-1.868.61-3.737 1.213-5.607 1.813-51.997 16.704-103.93 39.097-149.974 68.742a518.83 518.83 0 0 1-6.611 4.131C699.25 824.752 688.554 832.17 678 840l-3.406 2.504a380.325 380.325 0 0 0-21.543 17.172C649.183 863 649.183 863 647 863c-2.05-13.878-2.05-13.878 1.1-18.675 3.171-3.23 6.994-5.574 10.813-7.965 2.833-1.846 5.44-3.93 8.084-6.035 64.478-51.13 146.713-87.07 243.314-112.412a964.5 964.5 0 0 0 10.794-2.749c34.68-8.963 70.006-14.997 105.52-19.539l3.912-.508c7.195-.883 14.214-1.335 21.463-1.117a14064.507 14064.507 0 0 0-19-39.5 11145.824 11145.824 0 0 1-14.459-30.042 9238.12 9238.12 0 0 0-11.604-24.083A6052.94 6052.94 0 0 1 994.5 574.5a6977.334 6977.334 0 0 0-13.77-28.67 858.866 858.866 0 0 0-4.225-8.664C975 534 975 534 973.862 530.995c-1.922-4.93-1.922-4.93-5.978-8.036-2.998-.652-5.816-.846-8.884-.959l-3.994-.207c-4.731-.2-9.458-.231-14.193-.23l-2.615-.005c-27.645.037-55.412 3.584-82.198 10.442l-3.342.823c-28.174 6.952-55.305 16.203-81.853 27.94a710.719 710.719 0 0 1-7.746 3.354c-10.07 4.332-19.765 9.238-29.405 14.45a2065.806 2065.806 0 0 1-8.732 4.68C714.412 588.873 704.047 594.575 694 601c-1.478.923-2.958 1.845-4.438 2.766a656.284 656.284 0 0 0-33.707 22.476l-2.73 1.946-2.305 1.667C649 631 649 631 647 631c-.481-3.119-.612-5.892 0-9 2.115-2.72 4.794-4.362 7.688-6.188l2.44-1.644a404.937 404.937 0 0 1 5.194-3.427 450.609 450.609 0 0 0 7.881-5.264C738.226 559.347 813.698 523.394 896 513l2.727-.355c61.69-7.736 61.69-7.736 79.273 3.355Z" fill="#8842D5"/><path d="m229 565 1 2c-1.089 2.312-1.089 2.312-2.797 5.215l-1.889 3.239-2.064 3.484a3065.64 3065.64 0 0 0-2.091 3.575c-1.399 2.392-2.8 4.781-4.207 7.169a2089.495 2089.495 0 0 0-7.577 13.005l-1.314 2.267c-4.642 8.021-9.195 16.093-13.745 24.167a2676.28 2676.28 0 0 1-6.539 11.54c-6.962 12.229-13.711 24.559-20.355 36.964a1933.246 1933.246 0 0 1-8.214 15.16 3814.033 3814.033 0 0 0-4.45 8.16c-1.76 3.234-3.537 6.457-5.328 9.672-3.62 6.568-6.734 12.823-8.93 20.008-3.45 11.185-9.867 20.854-17.285 29.836-1.318 1.343-1.318 1.343-1.215 2.539l2.489.204c21.626 1.8 43.09 4.242 64.573 7.296l2.293.324c39.407 5.563 78.276 13.23 117.083 22.051l2.977.676c10.762 2.46 21.39 5.159 31.955 8.36 4.391 1.318 8.81 2.472 13.255 3.589 7.082 1.822 13.988 3.943 20.902 6.316a325.227 325.227 0 0 0 9.91 3.184l3.18.973c1.77.537 3.539 1.074 5.31 1.605 7.855 2.358 15.478 4.87 23.014 8.133 3.3 1.39 6.633 2.624 9.997 3.851C458.807 840.625 487.546 853.817 515 870l2.52 1.481c10.196 6.024 19.994 12.431 29.48 19.519l1.618 1.197c17.448 12.946 33.604 27.58 47.832 44.015 8.684 10.018 21.616 22.522 35.452 24.124 6.66.218 11.933-.87 18.098-3.336l4 9c-18.422 5.763-33.635 2.814-50.465-5.965-13.538-7.59-25.145-18.175-36.535-28.597-5.526-5.011-11.385-9.558-17.29-14.109a316.353 316.353 0 0 1-4.546-3.618C519.671 893.386 491.01 877.635 462 863l-2.74-1.387C415.553 839.672 368.131 824.617 321 812l-3.165-.857c-24.846-6.714-49.932-12.107-75.21-16.893l-2.284-.433c-10.439-1.97-20.9-3.779-31.383-5.495-2.629-.432-5.256-.874-7.884-1.314-26.761-4.42-53.658-7.872-80.626-10.752l-2.197-.236c-1.95-.208-3.902-.414-5.852-.619A166.18 166.18 0 0 1 103 774c1.462-3.952 3.326-7.461 5.457-11.094l1.027-1.754c1.106-1.887 2.217-3.77 3.329-5.652l2.332-3.966c4.812-8.164 9.73-16.255 14.759-24.288 4.994-8.006 9.795-16.123 14.596-24.246 5.902-9.983 11.864-19.918 18.002-29.758 3.536-5.672 7.007-11.38 10.435-17.117 11.166-18.677 22.561-37.214 33.978-55.739 2.175-3.532 4.345-7.066 6.515-10.6l3.266-5.32c1.027-1.671 2.052-3.344 3.077-5.016 2.995-4.875 6-9.724 9.227-14.45Z" fill="#F3B107"/><path d="M1026 541c4.215 3.66 6.664 8.174 9.438 12.938a312533750.387 312533750.387 0 0 1 4.904 8.284c2.585 4.332 5.243 8.619 7.908 12.903l3.277 5.277 1.703 2.742c5.266 8.497 10.49 17.02 15.726 25.534 2.005 3.258 4.012 6.515 6.02 9.771a6556.47 6556.47 0 0 1 25.976 42.525 9811.135 9811.135 0 0 0 11.95 19.656c1.133 1.858 2.264 3.717 3.396 5.576a1249745.35 1249745.35 0 0 0 24.44 40.15c2.985 4.9 5.965 9.803 8.938 14.71a24479.837 24479.837 0 0 0 5.395 8.896 594.193 594.193 0 0 0 12.452 19.589C1169 772 1169 772 1169 774c-3.24 1.08-6.046 1.354-9.45 1.648l-3.974.354-2.108.184c-13.695 1.2-27.333 2.667-40.962 4.482-2.32.307-4.64.603-6.963.894-6.007.767-11.904 1.675-17.824 2.938-4.799.883-9.65 1.385-14.496 1.938-4.11.508-8.164 1.254-12.234 2.013-3.113.572-6.23 1.104-9.352 1.627-26.678 4.488-53.432 9.273-79.57 16.307a837.985 837.985 0 0 1-14.028 3.623C902.122 824.018 848.585 843.183 797 869l-2.881 1.429c-35.641 17.74-67.958 41.42-97.244 68.259C674.397 959 674.397 959 666 959a205.189 205.189 0 0 1-2.063-3.75l-1.16-2.11c-.964-2.655-.963-3.575.223-6.14 2.188-2.191 2.188-2.191 5-4.563 3.851-3.343 7.208-6.724 10.375-10.75 7.485-9.473 16.33-17.994 25.625-25.687l1.586-1.34c10.643-8.988 21.748-17.053 33.414-24.66l2.44-1.593c51.4-33.278 110.103-56.118 169.044-71.91a635.83 635.83 0 0 0 13.11-3.696c33.987-9.911 68.744-17.7 103.69-23.354a457.811 457.811 0 0 0 16.131-2.894c23.026-4.59 46.33-7.577 69.679-9.932 4.577-.466 9.11-1.045 13.656-1.746 7.383-1.133 14.797-1.507 22.25-1.875l-1.006-1.37c-15.096-20.662-15.096-20.662-18.275-32.243-1.794-6.122-4.652-11.532-7.657-17.137l-1.75-3.313A1802.264 1802.264 0 0 0 1115 699l-1.522-2.832c-3.456-6.41-6.963-12.79-10.478-19.168l-2.826-5.141c-12.456-22.653-24.991-45.25-38.069-67.55-2.42-4.128-4.807-8.272-7.168-12.434-3.339-5.867-6.754-11.687-10.187-17.5l-1.663-2.816c-2.84-4.797-5.7-9.581-8.59-14.348a1341.505 1341.505 0 0 0-4.89-8.042l-1.439-2.372-1.273-2.083C1026 543 1026 543 1026 541Z" fill="#F3B208"/><path d="M642 600h5l1 32h-2c.085 22.826.181 45.651.288 68.477.049 10.608.095 21.216.134 31.825.153 41.41.341 82.814 1.43 124.212.06 2.32.12 4.64.178 6.961.372 14.533.889 29.047 1.901 43.552l.22 3.297c.671 8.794 2.509 16.473 5.849 24.676l.738 1.887C662.55 951.675 670.494 965.612 679 979h-10l-2 9c-3.246-3.246-5.25-6.648-7.438-10.625-.428-.778-.857-1.555-1.3-2.356C650.113 960.02 641.81 944.443 637 928l-1.078-3.645c-1.284-5.274-1.386-10.574-1.547-15.98l-.115-3.277c-.344-10.7-.356-21.395-.26-32.098l-2-1c-.048-20.853-.082-41.705-.104-62.558-.01-9.692-.023-19.385-.047-29.077-.095-40.338-.003-80.649 1.096-120.974l.066-2.44c.145-5.306.298-10.612.458-15.919l.116-3.923c.119-3.704.26-7.406.415-11.109l.082-2.123c.087-2.171.191-4.341.299-6.512.06-1.293.12-2.585.18-3.917.743-5.84 3.39-9.399 7.439-13.448Z" fill="#57D9F4"/><path d="M101 774c5.628-.086 11.06.209 16.648.848l2.515.278c2.738.306 5.475.62 8.212.937l2.866.327c16.24 1.864 32.443 3.985 48.634 6.235l3.209.442c10.397 1.437 20.697 2.943 30.937 5.272 4.608 1.022 9.255 1.74 13.917 2.473C263.022 796.548 297.839 804.122 332 814l2.929.836C391.166 830.941 447.717 850.566 498 881l4.266 2.54c27.17 16.28 52.53 35.52 75.734 57.085 16.766 15.194 37.046 28.065 60.25 27.613 5.336-.339 10.52-1.147 15.75-2.238 3 4.75 3 4.75 3 7-14.313 5.753-32.885 4.853-47-1-19.195-8.442-34.113-20.548-49.325-34.712-5.04-4.67-10.276-9.036-15.675-13.288l-1.697-1.36C523.57 906.873 502.233 892.968 480 881l-2.827-1.522A998.758 998.758 0 0 0 457 869l-2.266-1.157c-25.7-13.03-53.27-23.327-80.655-32.171-2.236-.723-4.47-1.45-6.703-2.178-86.25-28-176.285-42.712-266.376-51.494-1.125-5.75-1.125-5.75 0-8Z" fill="#964DEE"/><path d="m282.395 652.797 2.471-.021c2.65-.018 5.298-.024 7.947-.026l2.743-.002c14.374.017 28.258.82 42.444 3.252l6.723 1.066c34.83 5.701 69.444 15.96 102.277 28.934l2.467.972c5.088 2.01 10.162 4.05 15.232 6.102 2.118.852 4.24 1.69 6.367 2.52 8.019 3.135 15.854 6.577 23.616 10.296 2.68 1.284 5.365 2.56 8.048 3.837A3223.078 3223.078 0 0 1 522 719l2.907 1.408c14.356 6.98 28.297 14.564 42.093 22.592l2.65 1.536c9.49 5.521 18.77 11.288 27.85 17.464l2.411 1.637c7.314 5.051 7.314 5.051 10.089 8.363.496 2.907.433 4.302-1.125 6.813-2.808 1.778-4.58 1.55-7.875 1.187a70.51 70.51 0 0 1-7.063-4.688 952.126 952.126 0 0 0-4.296-3.058l-2.291-1.625C539.852 737.691 483.812 711.451 429 693l-3.317-1.118C396.876 682.245 367.965 674.127 338 669l-2.987-.543c-10.728-1.915-21.258-2.54-32.142-2.492l-3.003.013c-5.032.032-10.06.102-15.091.22l-2.86.044c-1.79.028-3.58.072-5.368.135-5.913.072-5.913.072-9.13-2.2C266 662 266 662 266.125 658.875 267 656 267 656 269 654c4.382-1.277 8.866-1.177 13.395-1.203ZM982.438 652.563l2.796-.019c2.65-.011 5.3 0 7.95.022l2.386-.008c5.046.085 10.649.66 14.43 4.442-.25 3.438-.25 3.438-1 7-3.982 2.655-7.408 2.232-12.023 2.16l-2.72-.016c-2.877-.017-5.754-.049-8.632-.082C916.85 665.389 849.975 688.79 788 717l-3.603 1.637C758.501 730.437 733.431 743.375 709 758l-2.536 1.508c-6.762 4.029-13.497 8.056-19.917 12.617l-2.19 1.552a238.878 238.878 0 0 0-4.058 2.972c-3.869 2.79-6.35 4.048-11.299 3.351-1.875-1.188-1.875-1.188-3-3-.285-2.399-.285-2.399 0-5 1.434-1.806 1.434-1.806 3.438-3.434l2.226-1.808c3.682-2.77 7.453-5.341 11.336-7.82l2.603-1.674c33.864-21.573 69.844-40.59 106.856-56.172 2.7-1.16 5.373-2.372 8.045-3.596 15.56-7.114 31.51-13.103 47.717-18.555 2.656-.9 5.302-1.82 7.947-2.75C875.693 669.408 895.829 664.47 916 660l3.125-.698c21.137-4.64 41.714-6.692 63.313-6.74ZM301.063 601.504l2.106-.008c2.278 0 4.554.03 6.831.067.782.006 1.563.012 2.368.02 15.017.127 29.755 1.327 44.632 3.417l2.948.39c35.635 4.793 70.041 15.952 103.49 28.798l1.901.727c9.43 3.628 18.55 7.74 27.661 12.085 1.983.928 3.966 1.855 5.95 2.781C581.945 688.946 581.945 688.946 610 717c-.25 3.438-.25 3.438-1 7-3 2-3 2-5.86 1.875-3.668-1.022-5.486-2.419-8.39-4.875-66.822-54.062-159.438-92.796-254.75-105l-2.666-.313c-5.726-.604-11.426-.795-17.178-.898l-2.373-.044c-3.26-.057-6.52-.112-9.78-.146a816.735 816.735 0 0 1-7.222-.122l-2.234-.01c-5.057-.123-5.057-.123-7.506-1.844-1.536-2.395-1.517-3.836-1.041-6.623 3.23-4.337 5.807-4.504 11.063-4.496ZM967.625 601.688l2.025-.045c1.963-.042 3.926-.056 5.89-.069l3.474-.044c3.628.571 4.788 1.582 6.986 4.47.48 2.816.512 4.24-1.096 6.627-2.874 2.073-5.287 1.76-8.799 1.78l-4.29.059-2.284.015c-3.984.032-7.966.125-11.949.222l-2.451.06c-20.024.551-39.711 3.23-59.246 7.597-2.764.613-5.533 1.19-8.307 1.757-56.009 11.725-111.228 36.624-160.02 66.326a894.471 894.471 0 0 1-7.456 4.479c-11.6 6.945-22.83 14.386-33.668 22.473l-2.307 1.695a259.322 259.322 0 0 0-4.37 3.29c-3.3 2.422-4.938 3.616-9.124 3.636C668 725 668 725 666 722c-.077-3.09.2-5.11 2.313-7.46 1.875-1.596 3.81-3.043 5.812-4.477l2.27-1.678C713.255 681.536 754.296 659.273 796 641l2.906-1.28c22.553-9.863 45.739-17.978 69.59-24.073a485.354 485.354 0 0 0 7.379-1.979c29.984-8.213 60.668-11.749 91.75-11.98Z" fill="#DFCBF4"/><path d="m1170 775-1 7c-1.077.105-2.153.21-3.263.32-24.475 2.285-24.475 2.285-48.823 5.603-7.693 1.247-15.423 2.126-23.167 2.987-5.476.626-10.82 1.458-16.213 2.592-3.691.725-7.406 1.224-11.132 1.74-26.335 3.652-52.446 8.802-78.29 15.02-3.29.78-6.586 1.528-9.885 2.27-10.752 2.419-21.392 4.94-31.925 8.19-3.502 1.06-7.022 1.996-10.57 2.891-12.24 3.101-24.235 6.896-36.232 10.824l-3.23 1.055c-69.546 22.803-135.769 55.682-190.332 105.07-8.167 7.368-16.242 14.579-25.5 20.563l-1.77 1.146c-2.827 1.774-5.349 3.193-8.668 3.729l-3-7 2.273-1.25c7.153-4.036 13.484-8.43 19.727-13.75l1.634-1.38c5.876-4.968 11.697-9.98 17.366-15.183 6.068-5.488 12.495-10.484 19-15.437l2.178-1.662c11.55-8.775 23.398-16.852 35.822-24.338l2.31-1.393c12.941-7.749 26.232-14.803 39.69-21.607l2.896-1.472c76.053-38.412 165.515-63.178 252.073-73.958 3.711-.475 7.315-1.26 10.96-2.102 8.63-1.95 17.497-2.772 26.282-3.72a613.125 613.125 0 0 0 26.547-3.47c9.748-1.474 19.48-2.679 29.304-3.528l3.12-.28 2.916-.236 2.578-.212c2.303-.022 4.13.311 6.324.978Z" fill="#994FF1"/><path d="m324.137 553.574 3.66.022 3.89.091c1.337.02 2.674.04 4.011.058 3.768.064 7.535.157 11.302.255l4.57.063c40.072 1.338 81.334 13.239 118.303 28.09 2.982 1.187 5.993 2.293 9.002 3.41 6.431 2.485 12.651 5.38 18.865 8.358 2.525 1.205 5.056 2.396 7.588 3.587C583.284 634.284 583.284 634.284 610 661c-.25 3.438-.25 3.438-1 7-3 2-3 2-5.86 1.875-3.668-1.022-5.486-2.419-8.39-4.875-25.522-20.627-55.551-36.363-84.75-51l-2.996-1.504C463.822 590.967 417.81 575.731 370 569l-2.606-.382c-8.325-1.189-16.602-1.655-25.003-1.848l-2.328-.056c-3.892-.09-7.784-.16-11.677-.197l-4.324-.076-3.902-.04C317 566 317 566 315.086 564.625c-1.596-2.387-1.566-3.815-1.086-6.625 3.078-3.995 5.185-4.492 10.137-4.426ZM938.465 553.648c1.644-.015 3.288-.037 4.932-.065 2.335-.035 4.67-.044 7.005-.044l2.141-.043c3.402.031 5.167.283 7.905 2.373C962 558 962 558 962.438 560.563c-.536 2.986-.974 3.686-3.438 5.437a57.837 57.837 0 0 1-7.297.371l-4.547.044-2.422.009C889.714 566.73 837.023 581.799 787 604l-3.314 1.466c-14.39 6.4-28.374 13.315-42.083 21.07a619.546 619.546 0 0 1-7.583 4.183c-10.83 5.962-21.182 12.545-31.457 19.406l-1.887 1.259c-1.83 1.225-3.658 2.455-5.485 3.686l-1.794 1.206a204.527 204.527 0 0 0-9.21 6.602l-1.891 1.42a171.35 171.35 0 0 0-3.532 2.737c-2.858 2.147-4.425 2.97-8.043 2.923C668 669 668 669 666 666c-.077-3.09.2-5.11 2.313-7.46 1.876-1.596 3.81-3.043 5.812-4.477.75-.555 1.501-1.11 2.275-1.68 44.362-32.3 95.05-59.137 147.13-76.552 2.53-.851 5.051-1.726 7.572-2.604C854.437 565.166 878.508 559.235 903 556l3.75-.562c10.535-1.442 21.095-1.7 31.715-1.79Z" fill="#DFCBF4"/><path d="M646.957 996.664c4.751 3.107 8.714 7.755 10.043 13.336.639 6.029.279 11.775-3 17-4.82 5.24-8.605 8.56-15.734 9.273-7.157.241-11.823-.461-17.266-5.273-5.784-6.24-6.515-11.114-6.375-19.512.625-5.812 2.81-9.254 7.16-13.043 7.816-5.874 16.519-6.1 25.172-1.78Z" fill="#CBA5FB"/><path d="M556 26c1.9 2.849 2.682 4.96 3.688 8.188 2.876 7.976 6.958 12.874 14.562 16.687l2.516 1.117C579 53 579 53 582 55l-1.652.375c-7.769 2.125-13.572 6.302-17.953 13.125-2.433 4.679-4.17 9.378-5.395 14.5-2.306-2.306-2.497-3.508-3.25-6.625-2.44-8.386-7.07-13.592-14.426-18.188C535.93 56.453 532.743 55.68 529 55v-1l1.906-.445c8.716-2.284 14.531-5.654 19.407-13.367 2.533-4.55 4.307-9.175 5.687-14.188Z" fill="#FACB8B"/><path d="M62.755-.513c5.803.126 9.416.777 13.667 4.978C78.92 6.895 81.769 7.789 85 9c-2.351 2.351-4.603 2.958-7.734 3.926C71.138 15.83 67.979 19.965 65.188 26l-.905 1.828C62.667 31.184 61.538 34.313 61 38c-1.493-2.837-2.582-5.66-3.625-8.688-2.983-7.45-7.69-13.396-15.062-16.812-3.055-1.162-6.06-2.08-9.313-2.5a672.294 672.294 0 0 1 6.945-3.438L43.125 5l3.195-1.563c6.266-3.36 9.01-3.913 16.435-3.95Z" fill="#FBCC8B"/><path d="M234 126c2 3 2 3 3.008 5.086 2.63 5.39 5.068 8.182 10.418 10.941L249 143v2c-1.61 1.078-1.61 1.078-3.75 2.25-5.952 3.586-8.362 8.142-10.25 14.75-1.568-2.352-2.665-4.394-3.813-6.938-2.73-5.51-6.404-8.08-12.187-10.062v-2l3.688-1.5c6.332-3.15 9.077-9 11.312-15.5Z" fill="#FACB8B"/><path d="m229 565 1 2c-1.089 2.312-1.089 2.312-2.797 5.215l-1.89 3.24-2.063 3.482c-.696 1.188-1.39 2.376-2.085 3.565a2497.97 2497.97 0 0 1-4.2 7.158c-2.61 4.436-5.198 8.886-7.778 13.34l-1.308 2.255C203.14 613.44 198.563 621.715 194 630h-3l-1-2c.965-2.005.965-2.005 2.508-4.488l1.721-2.798 1.896-3.027 1.931-3.124c1.327-2.144 2.657-4.286 3.99-6.427 1.796-2.882 3.58-5.771 5.36-8.663 7.11-11.546 14.329-23.024 21.594-34.473Z" fill="#ECAE17"/><path d="m733 384 2 3c2.54 3.537 2.54 3.537 6 6v2a522.49 522.49 0 0 1-5 4c-1.763 2.126-1.763 2.126-3 4l-1.207-1.496-1.606-1.942-1.582-1.933c-1.613-1.884-1.613-1.884-4.605-2.629v-2l2.25-1.25c3.3-2.1 4.756-4.427 6.75-7.75Z" fill="#F2C28D"/><path d="M1198 145c2 2 2 2 3.313 4.375 1.871 2.911 3.907 4.597 6.687 6.625l-2.813 1.688c-3.129 2.27-4.485 3.907-6.187 7.312l-1.625-2.25c-2.528-2.927-5.093-4.736-8.375-6.75l3-2c4.302-3.76 4.302-3.76 6-9Z" fill="#F4C48D"/><path d="M1026 541c4.344 3.735 6.844 8.487 9.688 13.375A613.435 613.435 0 0 0 1051 579l-3 1-1.481-2.535c-1.835-3.14-3.67-6.278-5.508-9.416l-2.37-4.055a6412.279 6412.279 0 0 0-3.434-5.869l-1.117-1.91a302.646 302.646 0 0 0-6.14-10.028C1026 543 1026 543 1026 541ZM229 565l1 2c-1.263 2.614-1.263 2.614-3.184 5.883l-1.013 1.74a1027.01 1027.01 0 0 1-3.24 5.502l-2.182 3.73c-1.785 3.054-3.58 6.1-5.381 9.145l-3-1c2.082-3.376 4.166-6.75 6.25-10.125l1.777-2.883c2.916-4.718 5.853-9.405 8.973-13.992Z" fill="#E6AB25"/><path d="M1049 580c4.066 1.355 5.135 4.04 7.188 7.563l1.115 1.865A630.44 630.44 0 0 1 1060 594l-3 1a1610.701 1610.701 0 0 1-4-6.375l-1.156-1.828c-2.844-4.57-2.844-4.57-2.844-6.797Z" fill="#EEB017"/><path d="m683 958 2 1c-.5 1.813-.5 1.813-2 4-2.562 1.346-5.173 2.37-8 3l-2-1 10-7Z" fill="#432282"/><path d="M669 979h10c-3.673 2.448-6.546 4-11 4l1-4Z" fill="#5342AA"/></svg>